<svg xmlns="http://www.w3.org/2000/svg" width="428" height="442" viewBox="0 0 428 442">
  <g id="Group_1" data-name="Group 1" transform="translate(-316 -177)">
    <rect id="Rectangle_1" data-name="Rectangle 1" width="428" height="442" transform="translate(316 177)" fill="none"/>
    <path id="arrow-up" d="M100.036,36.4a14.945,14.945,0,0,0-21.125,0l-106.7,105.958c-5.829,5.829-5.829,16.7,0,22.526s17.219,3.378,23.048-2.451L74.574,82.937l-1.109,269.6c0,8.254,7.4,13.048,15.65,13.048s15.817-3.164,15.817-11.419l-.512-271.18,82.7,84.294c5.829,5.829,16.475,5.829,22.3,0s5.829-17.064,0-22.893L100.082,36.35Z" transform="translate(439.157 198.975)" fill="#06213c"/>
  </g>
</svg>
