<svg xmlns="http://www.w3.org/2000/svg" width="554.6" height="134.1" viewBox="0 0 554.6 134.1">
  <g id="Layer_2_00000128458427924932951800000011950662589264113306_" transform="translate(-121.2 -96.7)">
    <g id="Group_5" data-name="Group 5">
      <g id="Group_4" data-name="Group 4">
        <g id="Group_3" data-name="Group 3">
          <g id="Group_1" data-name="Group 1">
            <path id="Path_1" data-name="Path 1" d="M166.7,205l-22.2-32.3V205H126.3V144.8h18.8L166,175.1V144.8h18.2V205Z" fill="#fff"/>
            <path id="Path_2" data-name="Path 2" d="M222.7,143.9c18.6,0,32.9,12.6,32.9,31.1s-14.3,31.1-32.9,31.1-32.9-12.6-32.9-31.1S204.1,143.9,222.7,143.9Zm0,16c-8.8,0-14.4,6.7-14.4,15.1s5.7,15.1,14.4,15.1c8.8,0,14.4-6.7,14.4-15.1S231.4,159.9,222.7,159.9Z" fill="#fff"/>
            <path id="Path_3" data-name="Path 3" d="M261.1,205V144.8h36.5c12.5,0,17.9,8.3,17.9,15.3,0,7.5-4.4,12.5-10.3,13.8,6.5,1,11.5,6.9,11.5,14.7,0,8.4-5.7,16.3-17.8,16.3l-37.8.1Zm18.3-37.8h14.1a3.788,3.788,0,0,0,3.6-3.9,3.672,3.672,0,0,0-3.6-3.7H279.4Zm0,23H294a3.964,3.964,0,0,0,4.2-4.1,4.1,4.1,0,0,0-4.2-4.2H279.4Z" fill="#fff"/>
            <path id="Path_4" data-name="Path 4" d="M323,205V144.8h18.2v44.3H364V205Z" fill="#fff"/>
            <path id="Path_5" data-name="Path 5" d="M370.4,205V144.8h45.7V160H388.7v7h26.8v15.2H388.7v7.7h27.4V205Z" fill="#fff"/>
            <path id="Path_6" data-name="Path 6" d="M421.5,173.7c0-18.9,13.8-32.4,32.8-32.4,18.9,0,32.7,13.5,32.7,32.4a32.741,32.741,0,0,1-8.2,22.2l4.6,5.4-9.3,7.6-5.1-5.8a35.285,35.285,0,0,1-14.8,3.1C435.4,206.2,421.5,192.6,421.5,173.7Zm39.3,19.6-6.9-8.1,9.3-7.6,6.9,8.1a22.045,22.045,0,0,0,3.2-11.9c0-11.8-7.4-20.6-19-20.6-11.7,0-19.1,8.8-19.1,20.6,0,11.7,7.4,20.6,19.1,20.6A25.187,25.187,0,0,0,460.8,193.3Z" fill="#93bce4"/>
            <path id="Path_7" data-name="Path 7" d="M525.8,205v-5.7a21.639,21.639,0,0,1-16,6.9c-10,0-14.7-5.5-14.7-14.3V159.6H507v27.6c0,6.3,3.3,8.4,8.4,8.4a13,13,0,0,0,10.3-5.2V159.6h11.9V205Z" fill="#93bce4"/>
            <path id="Path_8" data-name="Path 8" d="M545.7,182.3c0-12.9,9-23.8,24-23.8s24.1,10.9,24.1,23.8-9,23.9-24.1,23.9C554.7,206.2,545.7,195.2,545.7,182.3Zm35.6,0c0-7.1-4.1-13.2-11.7-13.2-7.4,0-11.6,6.1-11.6,13.2s4.1,13.3,11.6,13.3C577.2,195.5,581.3,189.4,581.3,182.3Z" fill="#93bce4"/>
            <path id="Path_9" data-name="Path 9" d="M604.1,193.7V170.1h-7.5V159.7h7.5V147.3H616v12.4h9.2v10.4H616v20.4c0,2.9,1.5,5.1,4.1,5.1a6.016,6.016,0,0,0,4.1-1.4l2.5,9.1c-1.8,1.6-5,2.9-10,2.9C608.5,206.2,604.1,201.8,604.1,193.7Z" fill="#93bce4"/>
            <path id="Path_10" data-name="Path 10" d="M629.5,182.3c0-13.2,9.8-23.8,23.5-23.8,13.6,0,22.8,10.2,22.8,24.9v2.8H642c.8,5.5,5.4,10.2,13.1,10.2,3.9,0,9.1-1.6,12-4.4l5.4,7.9c-4.5,4.1-11.7,6.3-18.7,6.3C639.9,206.2,629.5,196.9,629.5,182.3Zm23.5-14c-7.4,0-10.6,5.2-11.1,9.7h22.4C663.9,173.6,660.9,168.3,653,168.3Z" fill="#93bce4"/>
          </g>
          <g id="Group_2" data-name="Group 2">
            <path id="Path_11" data-name="Path 11" d="M174.4,96.7l-3.8,14.8h-8.3l3.9-14.8H143.3l3.9,14.8h-8.3l-3.7-14.8H123.7l8.4,30h45.6l7.9-29.4v-.6Z" fill="#93bce4"/>
          </g>
          <line id="Line_1" data-name="Line 1" x2="43.6" transform="translate(132.9 133.8)" fill="none" stroke="#93bce4" stroke-linecap="round" stroke-miterlimit="10" stroke-width="7.58"/>
          <rect id="Rectangle_1" data-name="Rectangle 1" width="64.7" height="7.6" transform="translate(122.6 212.3)" fill="#93bce4"/>
          <rect id="Rectangle_2" data-name="Rectangle 2" width="67.5" height="7.6" transform="translate(121.2 223.2)" fill="#93bce4"/>
        </g>
      </g>
    </g>
  </g>
</svg>
