<svg xmlns="http://www.w3.org/2000/svg" width="272.015" height="65.772" viewBox="0 0 272.015 65.772">
  <g id="Layer_2_00000128458427924932951800000011950662589264113306_" transform="translate(-121.2 -96.7)">
    <g id="Group_5" data-name="Group 5" transform="translate(121.2 96.7)">
      <g id="Group_4" data-name="Group 4">
        <g id="Group_3" data-name="Group 3">
          <g id="Group_1" data-name="Group 1" transform="translate(2.501 21.875)">
            <path id="Path_1" data-name="Path 1" d="M146.115,174.326l-10.888-15.842v15.842H126.3V144.8h9.221l10.251,14.861V144.8H154.7v29.526Z" transform="translate(-126.3 -143.083)" fill="#fff"/>
            <path id="Path_2" data-name="Path 2" d="M205.936,143.9c9.123,0,16.136,6.18,16.136,15.254s-7.014,15.254-16.136,15.254-16.137-6.18-16.137-15.254S196.814,143.9,205.936,143.9Zm0,7.848c-4.316,0-7.063,3.286-7.063,7.406s2.8,7.406,7.063,7.406c4.316,0,7.063-3.286,7.063-7.406S210.2,151.748,205.936,151.748Z" transform="translate(-158.655 -142.625)" fill="#fff"/>
            <path id="Path_3" data-name="Path 3" d="M261.1,174.326V144.8H279c6.131,0,8.779,4.071,8.779,7.5,0,3.679-2.158,6.131-5.052,6.769,3.188.49,5.64,3.384,5.64,7.21,0,4.12-2.8,7.995-8.73,7.995l-18.54.049Zm8.976-18.54h6.916a1.858,1.858,0,0,0,1.766-1.913,1.8,1.8,0,0,0-1.766-1.815h-6.916Zm0,11.281h7.161a1.944,1.944,0,0,0,2.06-2.011,2.011,2.011,0,0,0-2.06-2.06h-7.161Z" transform="translate(-194.985 -143.083)" fill="#fff"/>
            <path id="Path_4" data-name="Path 4" d="M323,174.326V144.8h8.927v21.728h11.183v7.8Z" transform="translate(-226.524 -143.083)" fill="#fff"/>
            <path id="Path_5" data-name="Path 5" d="M370.4,174.326V144.8h22.415v7.455H379.376v3.433H392.52v7.455H379.376v3.777h13.439v7.406Z" transform="translate(-250.676 -143.083)" fill="#fff"/>
            <path id="Path_6" data-name="Path 6" d="M421.5,157.191c0-9.27,6.768-15.891,16.087-15.891,9.27,0,16.038,6.621,16.038,15.891A16.059,16.059,0,0,1,449.6,168.08l2.256,2.649-4.561,3.728-2.5-2.845a17.307,17.307,0,0,1-7.259,1.52C428.318,173.132,421.5,166.461,421.5,157.191Zm19.275,9.613-3.384-3.973,4.561-3.728,3.384,3.973a10.813,10.813,0,0,0,1.569-5.837c0-5.788-3.629-10.1-9.319-10.1-5.739,0-9.368,4.316-9.368,10.1,0,5.739,3.629,10.1,9.368,10.1A12.353,12.353,0,0,0,440.775,166.8Z" transform="translate(-276.713 -141.3)" fill="#93bce4"/>
            <path id="Path_7" data-name="Path 7" d="M510.157,181.867v-2.8a10.613,10.613,0,0,1-7.848,3.384c-4.9,0-7.21-2.7-7.21-7.014V159.6h5.837v13.537c0,3.09,1.619,4.12,4.12,4.12a6.376,6.376,0,0,0,5.052-2.55V159.6h5.837v22.267Z" transform="translate(-314.214 -150.624)" fill="#93bce4"/>
            <path id="Path_8" data-name="Path 8" d="M545.7,170.173c0-6.327,4.414-11.673,11.771-11.673s11.82,5.346,11.82,11.673a11.328,11.328,0,0,1-11.82,11.722C550.114,181.9,545.7,176.5,545.7,170.173Zm17.461,0c0-3.482-2.011-6.474-5.739-6.474-3.63,0-5.69,2.992-5.69,6.474s2.011,6.523,5.69,6.523C561.15,176.647,563.161,173.656,563.161,170.173Z" transform="translate(-339.997 -150.064)" fill="#93bce4"/>
            <path id="Path_9" data-name="Path 9" d="M600.278,170.058V158.483H596.6v-5.1h3.678V147.3h5.837v6.082h4.512v5.1h-4.512v10.006c0,1.422.736,2.5,2.011,2.5a2.951,2.951,0,0,0,2.011-.687l1.226,4.463a7.278,7.278,0,0,1-4.9,1.422C602.437,176.189,600.278,174.031,600.278,170.058Z" transform="translate(-365.932 -144.357)" fill="#93bce4"/>
            <path id="Path_10" data-name="Path 10" d="M629.5,170.173A11.364,11.364,0,0,1,641.026,158.5c6.67,0,11.183,5,11.183,12.213v1.373H635.631c.392,2.7,2.648,5,6.425,5a9.257,9.257,0,0,0,5.886-2.158l2.648,3.875a14,14,0,0,1-9.172,3.09C634.6,181.9,629.5,177.334,629.5,170.173Zm11.526-6.867a5.168,5.168,0,0,0-5.444,4.758h10.987C646.372,165.906,644.9,163.307,641.026,163.307Z" transform="translate(-382.695 -150.064)" fill="#93bce4"/>
          </g>
          <g id="Group_2" data-name="Group 2" transform="translate(1.226)">
            <path id="Path_11" data-name="Path 11" d="M148.567,96.7l-1.864,7.259h-4.071l1.913-7.259H133.313l1.913,7.259h-4.071L129.34,96.7H123.7l4.12,14.714h22.365l3.875-14.42V96.7Z" transform="translate(-123.7 -96.7)" fill="#93bce4"/>
          </g>
          <line id="Line_1" data-name="Line 1" x2="21.385" transform="translate(5.739 18.196)" fill="none" stroke="#93bce4" stroke-linecap="round" stroke-miterlimit="10" stroke-width="7.58"/>
          <rect id="Rectangle_1" data-name="Rectangle 1" width="31.733" height="3.728" transform="translate(0.687 56.698)" fill="#93bce4"/>
          <rect id="Rectangle_2" data-name="Rectangle 2" width="33.107" height="3.728" transform="translate(0 62.045)" fill="#93bce4"/>
        </g>
      </g>
    </g>
  </g>
</svg>
