<svg xmlns="http://www.w3.org/2000/svg" width="329.278" height="134.1" viewBox="0 0 329.278 134.1">
  <g id="Group_1" data-name="Group 1" transform="translate(-287.8 -224.3)">
    <g id="Layer_2_00000128458427924932951800000011950662589264113306_" transform="translate(166.6 127.6)">
      <g id="Group_5" data-name="Group 5">
        <g id="Group_4" data-name="Group 4">
          <g id="Group_3" data-name="Group 3">
            <g id="Group_1-2" data-name="Group 1">
              <path id="Path_1" data-name="Path 1" d="M166.7,205l-22.2-32.3V205H126.3V144.8h18.8L166,175.1V144.8h18.2V205Z" fill="#fff"/>
              <path id="Path_2" data-name="Path 2" d="M222.7,143.9c18.6,0,32.9,12.6,32.9,31.1s-14.3,31.1-32.9,31.1-32.9-12.6-32.9-31.1S204.1,143.9,222.7,143.9Zm0,16c-8.8,0-14.4,6.7-14.4,15.1s5.7,15.1,14.4,15.1c8.8,0,14.4-6.7,14.4-15.1S231.4,159.9,222.7,159.9Z" fill="#fff"/>
              <path id="Path_3" data-name="Path 3" d="M261.1,205V144.8h36.5c12.5,0,17.9,8.3,17.9,15.3,0,7.5-4.4,12.5-10.3,13.8,6.5,1,11.5,6.9,11.5,14.7,0,8.4-5.7,16.3-17.8,16.3l-37.8.1Zm18.3-37.8h14.1a3.788,3.788,0,0,0,3.6-3.9,3.672,3.672,0,0,0-3.6-3.7H279.4Zm0,23H294a3.964,3.964,0,0,0,4.2-4.1,4.1,4.1,0,0,0-4.2-4.2H279.4Z" fill="#fff"/>
              <path id="Path_4" data-name="Path 4" d="M323,205V144.8h18.2v44.3H364V205Z" fill="#fff"/>
              <path id="Path_5" data-name="Path 5" d="M370.4,205V144.8h45.7V160H388.7v7h26.8v15.2H388.7v7.7h27.4V205Z" fill="#fff"/>
            </g>
            <g id="Group_2" data-name="Group 2">
              <path id="Path_11" data-name="Path 11" d="M174.4,96.7l-3.8,14.8h-8.3l3.9-14.8H143.3l3.9,14.8h-8.3l-3.7-14.8H123.7l8.4,30h45.6l7.9-29.4v-.6Z" fill="#93bce4"/>
            </g>
            <line id="Line_1" data-name="Line 1" x2="43.6" transform="translate(132.9 133.8)" fill="none" stroke="#93bce4" stroke-linecap="round" stroke-miterlimit="10" stroke-width="7.58"/>
            <rect id="Rectangle_1" data-name="Rectangle 1" width="64.7" height="7.6" transform="translate(122.6 212.3)" fill="#93bce4"/>
            <rect id="Rectangle_2" data-name="Rectangle 2" width="67.5" height="7.6" transform="translate(121.2 223.2)" fill="#93bce4"/>
          </g>
        </g>
      </g>
    </g>
    <path id="Path_1-2" data-name="Path 1" d="M19.05-40.731A8.314,8.314,0,0,0,12.4-43.56,9.307,9.307,0,0,0,2.82-34.08,9.311,9.311,0,0,0,12.4-24.6a8.513,8.513,0,0,0,7.13-3.16l-1.676-1.351A6.745,6.745,0,0,1,12.4-26.588,7.155,7.155,0,0,1,5.215-34.08,7.308,7.308,0,0,1,12.4-41.572a5.892,5.892,0,0,1,4.709,2.192Zm2.5,9.709c0,3.721,2.82,6.269,6.652,6.269s6.652-2.548,6.652-6.269-2.82-6.269-6.652-6.269S21.551-34.743,21.551-31.022Zm2.235,0A4.248,4.248,0,0,1,28.2-35.456a4.248,4.248,0,0,1,4.417,4.434A4.248,4.248,0,0,1,28.2-26.588,4.248,4.248,0,0,1,23.786-31.022Zm14.288,5.963h2.075v-5.81c0-2.727,1.171-4.587,3.858-4.587,1.942,0,2.847,1.249,2.847,3.236v7.161h2.075v-7.365c0-2.88-1.463-4.867-4.736-4.867a4.554,4.554,0,0,0-4.151,2.268h-.053c0-.663-.053-1.325-.053-1.962H37.967c0,.79.106,1.733.106,2.829Zm13.41-1.911a5.344,5.344,0,0,0,4.842,2.217C58.8-24.753,61.3-25.8,61.3-28.5c0-2.4-1.862-3.16-4.071-3.568-1.65-.306-3.14-.739-3.14-1.733,0-1.121,1.3-1.656,2.448-1.656a2.992,2.992,0,0,1,2.634,1.427l1.729-1.1a4.577,4.577,0,0,0-4.23-2.166c-2.315,0-4.656,1.2-4.656,3.517,0,2.472,2.022,2.956,4.39,3.466,1.33.28,2.661.612,2.661,1.886,0,1.3-1.437,1.835-2.74,1.835a3.909,3.909,0,0,1-3.193-1.605ZM75.056-36.985H72.981v5.81c0,2.727-1.171,4.587-3.858,4.587-1.942,0-2.847-1.249-2.847-3.236v-7.161H64.2v7.365c0,2.88,1.463,4.867,4.736,4.867a4.554,4.554,0,0,0,4.151-2.268h.053c0,.663.053,1.325.053,1.962h1.969c0-.79-.106-1.733-.106-2.829Zm3.938,11.926h2.075v-5.81c0-2.727,1.171-4.587,3.858-4.587,1.7,0,2.395,1.019,2.395,3.644v6.753H89.4v-6.881a3.271,3.271,0,0,1,3.219-3.517c2.421,0,3.033,1.605,3.033,3.262v7.135h2.075V-32.3c0-3.084-1.171-4.995-4.736-4.995a4.353,4.353,0,0,0-3.938,2.268,3.864,3.864,0,0,0-3.938-2.268,4.554,4.554,0,0,0-4.151,2.268h-.053c0-.663-.053-1.325-.053-1.962H78.887c0,.79.106,1.733.106,2.829Zm32.22-3.338a4.715,4.715,0,0,1-3.964,1.809,4.082,4.082,0,0,1-4.071-3.823h10.057v-.637c0-3.95-2.395-6.244-5.907-6.244a6.1,6.1,0,0,0-6.385,6.269,6.028,6.028,0,0,0,6.306,6.269,6.5,6.5,0,0,0,5.534-2.472Zm-8.035-3.7a3.8,3.8,0,0,1,4.071-3.364A3.4,3.4,0,0,1,111-32.092Zm13.276,7.034h2.075v-5.81c0-2.727,1.117-4.434,3.645-4.434a4.073,4.073,0,0,1,1.117.153l.133-2.013a2.565,2.565,0,0,0-.851-.127,4.554,4.554,0,0,0-4.151,2.268h-.053c0-.663-.053-1.325-.053-1.962h-1.969c0,.79.106,1.733.106,2.829Zm17.134,0h2.235v-8.1H139.6c2.661,0,6.173-1.045,6.173-4.995,0-3.772-3.14-4.944-6.6-4.944H133.59Zm2.235-16.055H139.6c2.235,0,3.778.968,3.778,2.982s-1.543,2.982-3.778,2.982h-3.778Zm13.17,16.055h2.075v-5.81c0-2.727,1.117-4.434,3.645-4.434a4.073,4.073,0,0,1,1.117.153l.133-2.013a2.565,2.565,0,0,0-.851-.127,4.554,4.554,0,0,0-4.151,2.268h-.053c0-.663-.053-1.325-.053-1.962h-1.969c0,.79.106,1.733.106,2.829Zm8.168-5.963c0,3.721,2.82,6.269,6.652,6.269s6.652-2.548,6.652-6.269-2.82-6.269-6.652-6.269S157.163-34.743,157.163-31.022Zm2.235,0a4.248,4.248,0,0,1,4.417-4.434,4.248,4.248,0,0,1,4.417,4.434,4.248,4.248,0,0,1-4.417,4.434A4.248,4.248,0,0,1,159.4-31.022Zm21.1-5.963h-3.672v-3.389h-2.075v3.389h-2.714V-35.3h2.714v6.549c0,2.472.479,4,3.432,4a6.555,6.555,0,0,0,2.421-.433L180.523-27a4.187,4.187,0,0,1-1.836.408c-1.836,0-1.862-1.223-1.862-2.752V-35.3H180.5ZM192.6-28.4a4.715,4.715,0,0,1-3.964,1.809,4.082,4.082,0,0,1-4.071-3.823h10.057v-.637c0-3.95-2.395-6.244-5.907-6.244a6.1,6.1,0,0,0-6.385,6.269,6.028,6.028,0,0,0,6.306,6.269,6.5,6.5,0,0,0,5.534-2.472Zm-8.035-3.7a3.8,3.8,0,0,1,4.071-3.364,3.4,3.4,0,0,1,3.751,3.364Zm23.786-3.313a6.469,6.469,0,0,0-4.789-1.886,6.1,6.1,0,0,0-6.439,6.269,6.056,6.056,0,0,0,6.439,6.269,6.178,6.178,0,0,0,4.709-1.911l-1.543-1.4a3.693,3.693,0,0,1-3.166,1.478,4.2,4.2,0,0,1-4.2-4.434c0-2.446,1.41-4.434,4.2-4.434A3.89,3.89,0,0,1,206.7-34Zm9.126-1.58h-3.672v-3.389h-2.075v3.389h-2.714V-35.3h2.714v6.549c0,2.472.479,4,3.432,4a6.555,6.555,0,0,0,2.421-.433L217.506-27a4.187,4.187,0,0,1-1.836.408c-1.836,0-1.862-1.223-1.862-2.752V-35.3h3.672Zm2.74,11.926h2.075V-36.985h-2.075Zm-.479-16.59a1.438,1.438,0,0,0,1.517,1.453,1.438,1.438,0,0,0,1.517-1.453,1.485,1.485,0,0,0-1.517-1.453A1.485,1.485,0,0,0,219.74-41.649Zm5.96,10.627c0,3.721,2.82,6.269,6.652,6.269S239-27.3,239-31.022s-2.82-6.269-6.652-6.269S225.7-34.743,225.7-31.022Zm2.235,0a4.248,4.248,0,0,1,4.417-4.434,4.248,4.248,0,0,1,4.417,4.434,4.248,4.248,0,0,1-4.417,4.434A4.248,4.248,0,0,1,227.935-31.022Zm14.288,5.963H244.3v-5.81c0-2.727,1.171-4.587,3.858-4.587,1.942,0,2.847,1.249,2.847,3.236v7.161h2.075v-7.365c0-2.88-1.463-4.867-4.736-4.867a4.554,4.554,0,0,0-4.151,2.268h-.053c0-.663-.053-1.325-.053-1.962h-1.969c0,.79.106,1.733.106,2.829Z" transform="translate(364 383)" fill="#fff"/>
  </g>
</svg>
