<svg xmlns="http://www.w3.org/2000/svg" width="180.602" height="73.559" viewBox="0 0 180.602 73.559">
  <g id="Group_1" data-name="Group 1" transform="translate(-287.8 -224.3)">
    <g id="Layer_2_00000128458427924932951800000011950662589264113306_" transform="translate(287.8 224.3)">
      <g id="Group_5" data-name="Group 5" transform="translate(0 0)">
        <g id="Group_4" data-name="Group 4">
          <g id="Group_3" data-name="Group 3">
            <g id="Group_1-2" data-name="Group 1" transform="translate(2.797 25.888)">
              <path id="Path_1" data-name="Path 1" d="M148.458,177.818,136.282,160.1v17.716H126.3V144.8h10.311l11.463,16.619V144.8h9.982v33.018Z" transform="translate(-126.3 -144.306)" fill="#fff"/>
              <path id="Path_2" data-name="Path 2" d="M207.845,143.9c10.2,0,18.045,6.911,18.045,17.058s-7.843,17.058-18.045,17.058S189.8,171.1,189.8,160.958,197.643,143.9,207.845,143.9Zm0,8.776c-4.827,0-7.9,3.675-7.9,8.282s3.126,8.282,7.9,8.282c4.827,0,7.9-3.675,7.9-8.282S212.617,152.676,207.845,152.676Z" transform="translate(-154.972 -143.9)" fill="#fff"/>
              <path id="Path_3" data-name="Path 3" d="M261.1,177.818V144.8h20.019c6.856,0,9.818,4.552,9.818,8.392,0,4.114-2.413,6.856-5.649,7.569,3.565.548,6.307,3.784,6.307,8.063,0,4.607-3.126,8.94-9.763,8.94l-20.732.055Zm10.037-20.732h7.734a2.078,2.078,0,0,0,1.974-2.139,2.014,2.014,0,0,0-1.974-2.029h-7.734Zm0,12.615h8.008a2.174,2.174,0,0,0,2.3-2.249,2.249,2.249,0,0,0-2.3-2.3h-8.008Z" transform="translate(-187.165 -144.306)" fill="#fff"/>
              <path id="Path_4" data-name="Path 4" d="M323,177.818V144.8h9.982v24.3h12.505v8.721Z" transform="translate(-215.115 -144.306)" fill="#fff"/>
              <path id="Path_5" data-name="Path 5" d="M370.4,177.818V144.8h25.065v8.337H380.437v3.839h14.7v8.337h-14.7v4.223h15.028v8.282Z" transform="translate(-236.517 -144.306)" fill="#fff"/>
            </g>
            <g id="Group_2" data-name="Group 2" transform="translate(1.371)">
              <path id="Path_11" data-name="Path 11" d="M151.508,96.7l-2.084,8.117h-4.552L147.01,96.7H134.45l2.139,8.117h-4.552L130.007,96.7H123.7l4.607,16.454h25.01l4.333-16.125V96.7Z" transform="translate(-123.7 -96.7)" fill="#93bce4"/>
            </g>
            <line id="Line_1" data-name="Line 1" x2="23.914" transform="translate(6.417 20.348)" fill="none" stroke="#93bce4" stroke-linecap="round" stroke-miterlimit="10" stroke-width="7.58"/>
            <rect id="Rectangle_1" data-name="Rectangle 1" width="35.486" height="4.168" transform="translate(0.768 63.404)" fill="#93bce4"/>
            <rect id="Rectangle_2" data-name="Rectangle 2" width="37.022" height="4.168" transform="translate(0 69.382)" fill="#93bce4"/>
          </g>
        </g>
      </g>
    </g>
    <path id="Path_1-2" data-name="Path 1" d="M11.721-42.013a4.56,4.56,0,0,0-3.647-1.552A5.1,5.1,0,0,0,4.332-42.09a5.1,5.1,0,0,0-1.513,3.726A5.107,5.107,0,0,0,4.333-34.64a5.107,5.107,0,0,0,3.741,1.475A4.669,4.669,0,0,0,11.984-34.9l-.919-.741a3.7,3.7,0,0,1-2.991,1.384A3.924,3.924,0,0,1,5.22-35.463a3.924,3.924,0,0,1-1.088-2.9,4.008,4.008,0,0,1,1.114-2.876,4.008,4.008,0,0,1,2.827-1.233,3.232,3.232,0,0,1,2.583,1.2Zm1.371,5.325a3.411,3.411,0,0,0,3.648,3.438,3.411,3.411,0,0,0,3.648-3.438,3.411,3.411,0,0,0-3.648-3.438,3.41,3.41,0,0,0-3.648,3.438Zm1.226,0a2.33,2.33,0,0,1,.677-1.748,2.33,2.33,0,0,1,1.745-.684,2.33,2.33,0,0,1,1.746.684,2.33,2.33,0,0,1,.677,1.748,2.33,2.33,0,0,1-.677,1.748,2.33,2.33,0,0,1-1.746.684,2.33,2.33,0,0,1-1.745-.684,2.33,2.33,0,0,1-.676-1.748Zm7.837,3.271h1.138V-36.6c0-1.5.642-2.516,2.116-2.516,1.065,0,1.562.685,1.562,1.775v3.928h1.138v-4.04a2.383,2.383,0,0,0-2.6-2.669,2.5,2.5,0,0,0-2.277,1.244H23.2c0-.364-.029-.727-.029-1.076H22.1c0,.433.058.951.058,1.552Zm7.355-1.048a2.931,2.931,0,0,0,2.656,1.216c1.357,0,2.729-.574,2.729-2.055,0-1.316-1.021-1.733-2.233-1.957-.9-.168-1.722-.405-1.722-.951,0-.615.713-.908,1.343-.908a1.641,1.641,0,0,1,1.445.783l.948-.6a2.51,2.51,0,0,0-2.32-1.188c-1.27,0-2.554.658-2.554,1.929,0,1.356,1.109,1.621,2.408,1.9.729.154,1.459.336,1.459,1.034s-.788,1.006-1.5,1.006a2.144,2.144,0,0,1-1.751-.88Zm12.929-5.493H41.3v3.187c0,1.5-.642,2.516-2.116,2.516-1.065,0-1.562-.685-1.562-1.775v-3.928H36.485v4.04a2.383,2.383,0,0,0,2.6,2.669,2.5,2.5,0,0,0,2.277-1.244h.029c0,.364.029.727.029,1.076H42.5c0-.433-.058-.951-.058-1.552Zm2.16,6.541h1.138V-36.6c0-1.5.642-2.516,2.116-2.516.932,0,1.314.559,1.314,2v3.7h1.14v-3.774a1.794,1.794,0,0,1,.466-1.346,1.794,1.794,0,0,1,1.3-.583c1.328,0,1.664.88,1.664,1.789v3.913h1.138v-3.971c0-1.691-.642-2.74-2.6-2.74a2.388,2.388,0,0,0-2.16,1.244,2.119,2.119,0,0,0-2.16-1.244,2.5,2.5,0,0,0-2.277,1.244H45.65c0-.364-.029-.727-.029-1.076H44.54c0,.433.058.951.058,1.552Zm17.672-1.831a2.586,2.586,0,0,1-2.174.992,2.239,2.239,0,0,1-2.233-2.1H63.38V-36.7a3.1,3.1,0,0,0-3.24-3.425,3.346,3.346,0,0,0-2.5.955,3.346,3.346,0,0,0-1,2.484,3.306,3.306,0,0,0,.972,2.481,3.306,3.306,0,0,0,2.486.958,3.565,3.565,0,0,0,3.035-1.356Zm-4.407-2.029A2.084,2.084,0,0,1,60.1-39.122a1.865,1.865,0,0,1,1.438.468,1.865,1.865,0,0,1,.619,1.38Zm7.282,3.858h1.138v-3.187c0-1.5.613-2.432,2-2.432a2.234,2.234,0,0,1,.613.084l.073-1.1a1.407,1.407,0,0,0-.467-.07,2.5,2.5,0,0,0-2.277,1.244H66.2c0-.364-.029-.727-.029-1.076h-1.08c0,.433.058.951.058,1.552Zm9.4,0h1.226v-4.443H77.84c1.459,0,3.386-.573,3.386-2.74,0-2.069-1.722-2.712-3.62-2.712H74.543Zm1.226-8.806H77.84c1.226,0,2.072.531,2.072,1.636s-.846,1.636-2.072,1.636H75.768Zm7.223,8.806H84.13v-3.187c0-1.5.613-2.432,2-2.432a2.234,2.234,0,0,1,.613.084l.073-1.1a1.407,1.407,0,0,0-.467-.07,2.5,2.5,0,0,0-2.277,1.244h-.029c0-.364-.029-.727-.029-1.076h-1.08c0,.433.058.951.058,1.552Zm4.48-3.271a3.411,3.411,0,0,0,3.648,3.438,3.411,3.411,0,0,0,3.648-3.438,3.411,3.411,0,0,0-3.648-3.438,3.412,3.412,0,0,0-3.648,3.441Zm1.226,0a2.33,2.33,0,0,1,.677-1.748,2.33,2.33,0,0,1,1.746-.684,2.33,2.33,0,0,1,1.746.684,2.33,2.33,0,0,1,.677,1.748,2.33,2.33,0,0,1-.677,1.748,2.33,2.33,0,0,1-1.746.684,2.33,2.33,0,0,1-1.744-.684,2.33,2.33,0,0,1-.677-1.746Zm11.573-3.271H98.257v-1.859H97.119v1.859H95.63v.926h1.489v3.592c0,1.356.263,2.194,1.882,2.194a3.6,3.6,0,0,0,1.328-.237l-.044-1a2.3,2.3,0,0,1-1.007.224c-1.007,0-1.021-.671-1.021-1.509v-3.267h2.016Zm6.638,4.711a2.586,2.586,0,0,1-2.174.992,2.239,2.239,0,0,1-2.233-2.1h5.516V-36.7a3.1,3.1,0,0,0-3.24-3.425,3.346,3.346,0,0,0-2.5.955,3.346,3.346,0,0,0-1,2.484,3.306,3.306,0,0,0,.972,2.481,3.306,3.306,0,0,0,2.486.958,3.565,3.565,0,0,0,3.035-1.356ZM102.5-37.279a2.084,2.084,0,0,1,2.233-1.845,1.865,1.865,0,0,1,1.438.467,1.865,1.865,0,0,1,.62,1.379ZM115.548-39.1a3.548,3.548,0,0,0-2.627-1.034,3.346,3.346,0,0,0-2.521.943,3.346,3.346,0,0,0-1.01,2.5,3.322,3.322,0,0,0,1,2.5,3.322,3.322,0,0,0,2.529.935A3.389,3.389,0,0,0,115.5-34.3l-.846-.768a2.026,2.026,0,0,1-1.736.811,2.3,2.3,0,0,1-1.676-.719,2.3,2.3,0,0,1-.628-1.713,2.22,2.22,0,0,1,2.3-2.432,2.134,2.134,0,0,1,1.721.8Zm5.005-.867h-2.014v-1.859H117.4v1.859h-1.489v.929H117.4v3.592c0,1.356.263,2.194,1.882,2.194a3.6,3.6,0,0,0,1.328-.237l-.042-1a2.3,2.3,0,0,1-1.007.224c-1.007,0-1.021-.671-1.021-1.509v-3.267h2.014Zm1.5,6.541h1.138v-6.537h-1.138Zm-.263-9.1a.789.789,0,0,0,.243.579.789.789,0,0,0,.589.218.789.789,0,0,0,.589-.218.789.789,0,0,0,.243-.579.814.814,0,0,0-.832-.8.815.815,0,0,0-.582.228.815.815,0,0,0-.249.573Zm3.269,5.829a3.411,3.411,0,0,0,3.648,3.438,3.406,3.406,0,0,0,3.647-3.434,3.41,3.41,0,0,0-3.648-3.438,3.409,3.409,0,0,0-3.646,3.438Zm1.226,0a2.33,2.33,0,0,1,.677-1.748,2.33,2.33,0,0,1,1.746-.684,2.33,2.33,0,0,1,1.746.684,2.33,2.33,0,0,1,.677,1.748,2.33,2.33,0,0,1-.677,1.748,2.33,2.33,0,0,1-1.746.684,2.33,2.33,0,0,1-1.743-.683,2.33,2.33,0,0,1-.678-1.745Zm7.837,3.271h1.14v-3.187c0-1.5.642-2.516,2.116-2.516,1.065,0,1.562.685,1.562,1.775v3.928h1.138v-4.04a2.383,2.383,0,0,0-2.6-2.669,2.5,2.5,0,0,0-2.277,1.244h-.029c0-.364-.029-.727-.029-1.076h-1.08c0,.433.058.951.058,1.552Z" transform="translate(328.321 331.016)" fill="#fff"/>
  </g>
</svg>
