<svg xmlns="http://www.w3.org/2000/svg" xmlns:xlink="http://www.w3.org/1999/xlink" width="889.13" height="962.603" viewBox="0 0 889.13 962.603">
  <defs>
    <clipPath id="clip-path">
      <path id="Path_84" data-name="Path 84" d="M103.31,232.94c17.28,1.59,57.02,14.65,57.02,101.09V735.64L540.01,982.5,919.69,735.64V334.03c0-86.44,39.73-99.5,57.02-101.09H103.31Z" fill="none"/>
    </clipPath>
    <linearGradient id="linear-gradient" x1="1.04" y1="0.599" x2="0.042" y2="0.42" gradientUnits="objectBoundingBox">
      <stop offset="0" stop-color="#a6a6a6"/>
      <stop offset="1" stop-color="#454545"/>
    </linearGradient>
  </defs>
  <g id="nav-icon-new" transform="translate(-95.43 -58.955)" style="isolation: isolate">
    <g id="Layer_3" data-name="Layer 3">
      <g id="Group_26" data-name="Group 26">
        <path id="Path_3" data-name="Path 3" d="M301.68,862.1l237.83,155.88L793.02,854.72l-.19-362.9H301.86Z" fill="#d1d1d1" stroke="#000" stroke-miterlimit="10" stroke-width="6"/>
        <g id="Group_2" data-name="Group 2">
          <path id="Path_4" data-name="Path 4" d="M95.43,232.94h7.87A37.23,37.23,0,0,0,95.43,232.94Z"/>
          <path id="Path_5" data-name="Path 5" d="M976.69,232.94h7.87A37.23,37.23,0,0,0,976.69,232.94Z"/>
        </g>
        <g id="Group_20" data-name="Group 20" clip-path="url(#clip-path)">
          <g id="Group_19" data-name="Group 19">
            <g id="Group_3" data-name="Group 3">
              <path id="Path_6" data-name="Path 6" d="M600.54,733.6c-2.87,14.27,53.19,42.36,134.21,52.7,56.73,7.24,70.87,3.65,75.4-10.51,17.76-55.45-28.23-132.08-93.22-145.16s-104.9,45.89-116.39,102.98Z" fill="#387fc2" stroke="#000" stroke-linejoin="round" stroke-width="6"/>
              <path id="Path_7" data-name="Path 7" d="M576.1,737.93c-7.66,38.08,86.24,57.93,138.47,68.44s119.55,12.52,94.73-28.59c-4.6,15.3-70.92-4.75-70.51-7.38,11.78-74.32,28.89-156.27-26.83-167.48-57.69-11.61-120.54,58.84-135.86,135Z" fill="#0b4e8c" stroke="#000" stroke-linejoin="round" stroke-width="6"/>
              <path id="Path_8" data-name="Path 8" d="M695.86,794.35c-38.24-7.7-106.47-24.78-100.86-52.65,11.22-55.76,58.98-116.06,101.22-107.56,40.79,8.21,27.46,83.76,16.59,137.76-2.47,12.28,13,16.84,38.98,22.35s43.04,5.25,45.79,5.93-23.28,9.96-101.73-5.82Z"/>
              <path id="Path_9" data-name="Path 9" d="M767.44,676.59c23.86,21.3,33.06,65.71,31.67,78.31s-24.26,12.48-23.98-18.97a213.557,213.557,0,0,0-8.06-58.31" fill="#fff" style="mix-blend-mode: soft-light;isolation: isolate"/>
              <ellipse id="Ellipse_1" data-name="Ellipse 1" cx="23.71" cy="17.57" rx="23.71" ry="17.57" transform="translate(723.246 792.326) rotate(-80.64)" fill="#387fc2" stroke="#000" stroke-miterlimit="10" stroke-width="6"/>
              <path id="Path_10" data-name="Path 10" d="M740.54,771.13c1.19-7.19,6.68-12.27,12.28-11.35,9.19,1.51,12.99,8.13,11.8,15.32s-6.28,12.34-16.09,10.72C742.93,784.9,739.36,778.32,740.54,771.13Z" fill="#93bce4" stroke="#000" stroke-miterlimit="10" stroke-width="6"/>
            </g>
            <g id="Group_4" data-name="Group 4">
              <circle id="Ellipse_2" data-name="Ellipse 2" cx="54.9" cy="54.9" r="54.9" transform="translate(632.43 737.35)" stroke="#000" stroke-linejoin="round" stroke-width="6"/>
              <circle id="Ellipse_3" data-name="Ellipse 3" cx="41.74" cy="41.74" r="41.74" transform="translate(668.23 858.18)" stroke="#000" stroke-linejoin="round" stroke-width="6"/>
              <path id="Path_11" data-name="Path 11" d="M657.87,890.95l95.63-20.11-7.59-88.21L629.29,807.15Z" fill="#93bce4" stroke="#000" stroke-linejoin="round" stroke-width="6"/>
              <path id="Path_12" data-name="Path 12" d="M707.39,808.35l16.36,68.74-65.87,13.85L629.3,807.15l116.62-24.52,1.45,16.85L673.1,812.02l13.06,48.82s19.97-7.78,20.57-17.23.66-35.26.66-35.26Z" opacity="0.7" style="mix-blend-mode: soft-light;isolation: isolate"/>
              <line id="Line_1" data-name="Line 1" x2="17.84" y2="84.83" transform="translate(687.87 794.84)" fill="none" stroke="#000" stroke-linejoin="round" stroke-width="3"/>
              <path id="Path_13" data-name="Path 13" d="M693.11,868.88h0a3.4,3.4,0,0,1-4.02-2.62h0a3.4,3.4,0,0,1,2.62-4.02h0a3.393,3.393,0,1,1,1.4,6.64Zm-5.45-25.92h0a3.4,3.4,0,0,1-4.02-2.62h0a3.4,3.4,0,0,1,2.62-4.02h0a3.393,3.393,0,1,1,1.4,6.64Zm-5.45-25.93h0a3.4,3.4,0,0,1-4.02-2.62h0a3.4,3.4,0,0,1,2.62-4.02h0a3.393,3.393,0,1,1,1.4,6.64Z"/>
              <line id="Line_2" data-name="Line 2" x1="4" y2="19.86" transform="translate(685.33 782.32)" fill="none"/>
              <line id="Line_3" data-name="Line 3" x1="19.71" y1="3.97" transform="translate(677.47 790.27)" fill="none"/>
            </g>
            <g id="Group_5" data-name="Group 5">
              <circle id="Ellipse_4" data-name="Ellipse 4" cx="44.47" cy="44.47" r="44.47" transform="translate(741.74 957.95)" stroke="#000" stroke-linejoin="round" stroke-width="6"/>
              <path id="Path_14" data-name="Path 14" d="M776.71,867.35l-114.3,84.96,85.46,79.06,77.47-57.58Z" fill="#387fc2" stroke="#000" stroke-linejoin="round" stroke-width="6"/>
              <path id="Path_15" data-name="Path 15" d="M739.62,894.92l67.8,92.19-59.55,44.26-85.46-79.06,42.67-31.71,66.76,76.03,8.8-4.65-52.51-88.51Z" opacity="0.7" style="mix-blend-mode: soft-light;isolation: isolate"/>
              <line id="Line_4" data-name="Line 4" x1="102.11" y2="75.9" transform="translate(690.75 902.65)" fill="none" stroke="#000" stroke-linejoin="round" stroke-width="3"/>
              <line id="Line_5" data-name="Line 5" x1="88.12" y2="65.49" transform="translate(720.48 940.6)" fill="none" stroke="#000" stroke-linejoin="round" stroke-width="3"/>
              <line id="Line_6" data-name="Line 6" x2="21.49" y2="28.93" transform="translate(699.22 885.45)" fill="none"/>
              <line id="Line_7" data-name="Line 7" x1="32.03" y2="23.8" transform="translate(693.73 888.18)" fill="none"/>
            </g>
            <g id="Group_7" data-name="Group 7">
              <path id="Path_16" data-name="Path 16" d="M854.58,1040.94c12.86,11.81,18.25,47.93-6.47,52.86.89,7.7-17.6,14.06-30.16,7.86-7.71,13.37-20.56,13.41-26.64,10.01-7.56,9.7-19.63,11.3-26.92,7.96" fill="none" stroke="#000" stroke-linejoin="round" stroke-width="3"/>
              <g id="Group_6" data-name="Group 6">
                <path id="Path_17" data-name="Path 17" d="M821.01,997.96s22.61-4.06,33.16,8.71,9.33,34.52,5.66,49.33-22,14.76-52.65,30.85c-9.26,4.86-19.43-15.31-16.9-24.67s28.12-15.47,28.12-15.47-17.82-1.05-22.73-14.67,17.95-33.19,25.34-34.08Z" fill="#387fc2" stroke="#000" stroke-linejoin="round" stroke-width="6"/>
                <path id="Path_18" data-name="Path 18" d="M757.34,1044.11l77.47-57.58c22.91,1.13,25.13,10.75,33.55,22.09s27.8,40.71,26.46,58.12l-94.1,43.2s-27.67,2.81-43.82-26.03c-8.56-15.29-3.09-33.52.43-39.8Z" fill="#387fc2" stroke="#000" stroke-linejoin="round" stroke-width="6"/>
                <path id="Path_19" data-name="Path 19" d="M782.2,1079.96c-21.67-2.63-29.2,25.54-18.95,36.54s26.91,25.24,36.3,25.29,19.36-3.71,23.56-10.93c15.55,5.15,27-3.05,30.26-9.25,14.67,3.02,25.34-7.01,27.36-12.77,12.21,2.35,16.65-8.24,21.76-17.9s-10.2-49.19-15.95-53.02c-15.68,1.09-16.02,9.95-16.02,9.95s-13.57-9.94-27.04-4.58-60.21,19.88-61.28,36.67Z" fill="#387fc2" stroke="#000" stroke-linejoin="round" stroke-width="6"/>
                <path id="Path_20" data-name="Path 20" d="M821.01,997.96s22.61-4.06,33.16,8.71,9.33,34.52,5.66,49.33-22,14.76-52.65,30.85c-9.26,4.86-19.43-15.31-16.9-24.67s28.12-15.47,28.12-15.47-17.82-1.05-22.73-14.67,17.95-33.19,25.34-34.08Z" fill="#387fc2" stroke="#000" stroke-linejoin="round" stroke-width="6"/>
                <path id="Path_21" data-name="Path 21" d="M818.4,1046.71c18.55-3.46,36.53,5.02,41.43,9.29" fill="none" stroke="#000" stroke-linejoin="round" stroke-width="6"/>
                <path id="Path_22" data-name="Path 22" d="M802.42,1052.16c11.8,6.93,20.4,17.08,24.1,23.49" fill="none" stroke="#000" stroke-linejoin="round" stroke-width="3"/>
                <path id="Path_23" data-name="Path 23" d="M805.91,1041.75c-9.87-20.4,34.97-43.01,53.4-26.07" fill="none" stroke="#000" stroke-linejoin="round" stroke-width="3"/>
              </g>
              <line id="Line_8" data-name="Line 8" x2="21.49" y2="28.92" transform="translate(786.39 1002.74)" fill="none"/>
              <line id="Line_9" data-name="Line 9" x1="32.03" y2="23.81" transform="translate(780.9 1005.46)" fill="none"/>
              <path id="Path_24" data-name="Path 24" d="M782.2,1079.96c-3.08,11.49-2.39,20.09,6,27.81s18.02,16.73,34.91,23.08" fill="none" stroke="#000" stroke-linejoin="round" stroke-width="6"/>
              <path id="Path_25" data-name="Path 25" d="M808.39,1086.23c-2.13,10.36,23.82,27.09,44.99,35.38" fill="none" stroke="#000" stroke-linejoin="round" stroke-width="6"/>
              <path id="Path_26" data-name="Path 26" d="M880.74,1108.84c-25.39-5.94-48.79-22.98-46.32-34.15" fill="none" stroke="#000" stroke-linejoin="round" stroke-width="6"/>
              <path id="Path_27" data-name="Path 27" d="M758.74,1103.79c8.13-17.84,21.8-11.86,21.79-12.24s2.02-7.95,13.99-11.36" fill="none" stroke="#000" stroke-linejoin="round" stroke-width="3"/>
              <path id="Path_28" data-name="Path 28" d="M870.52,1047.87c21.58,7.73,32.75,34.61,32.75,40.67" fill="none" stroke="#000" stroke-linejoin="round" stroke-width="6"/>
              <path id="Path_29" data-name="Path 29" d="M785.56,1135.96c12.92,6.73,25.47-2.08,28.42-9.12,22.14.72,25.69-3.54,27.58-10.51,18.51,2.86,30.94-4.15,33.07-10.42,13.38,1.18,28.33-14.63,25.76-30.27" fill="none" stroke="#000" stroke-linejoin="round" stroke-width="3"/>
              <path id="Path_30" data-name="Path 30" d="M876.24,1093.94c-12.4-7.55-23.1-16.99-17.99-23.75s2.61-19.28,2.61-19.28-3.27,13.96-12.19,17.65-31.28,19.93-44.95,19.06-5.23-5.53-5.23-5.53l7.19-10.63c7.19-10.63,36.62-24.28,36.62-24.28s-20.76-6.56-24.75-16.1,10.81-42.84,26.34-41.76a15.7,15.7,0,0,0,.2-1.66,59.85,59.85,0,0,0-9.28-1.12l-16.5,12.27c-3.5,1.54-8.32,5.02-12.68,9.42l-48.29,35.89c-3.52,6.29-8.99,24.52-.43,39.8a58.561,58.561,0,0,0,4.77,7.24c-4.3,8.41-3.97,19.39,1.58,25.34,10.25,11,26.91,25.24,36.3,25.29s19.36-3.71,23.56-10.93a28.021,28.021,0,0,0,18.26.19c-19.27-11.01-43.9-28.12-43.9-28.12s-4.82-4.72,13.66-6.31c9.07,8.41,28.67,19.03,41.84,25.69.14-.23.28-.47.4-.7a25.468,25.468,0,0,0,12.66-.54,172.494,172.494,0,0,1-40.99-29.16s9.37-17.23,16.84-4.89c5,8.26,24.76,18.19,37.9,23.78a10.871,10.871,0,0,0,.94-1.97c7.25,1.4,11.76-1.77,15.3-6.6-6.21-1.88-13.78-4.64-19.8-8.3Z" opacity="0.7" style="mix-blend-mode: soft-light;isolation: isolate"/>
            </g>
            <circle id="Ellipse_5" data-name="Ellipse 5" cx="54.9" cy="54.9" r="54.9" transform="translate(617.57 708.88)" stroke="#000" stroke-linejoin="round" stroke-width="6"/>
            <g id="Group_10" data-name="Group 10">
              <g id="Group_8" data-name="Group 8">
                <ellipse id="Ellipse_6" data-name="Ellipse 6" cx="20.22" cy="13.91" rx="20.22" ry="13.91" transform="translate(428.026 1134.778) rotate(-78.62)" fill="#0b4e8c" stroke="#000" stroke-miterlimit="10" stroke-width="3"/>
                <ellipse id="Ellipse_7" data-name="Ellipse 7" cx="20.22" cy="13.91" rx="20.22" ry="13.91" transform="translate(455.299 1140.267) rotate(-78.62)" fill="#0b4e8c" stroke="#000" stroke-miterlimit="10" stroke-width="3"/>
                <ellipse id="Ellipse_8" data-name="Ellipse 8" cx="20.22" cy="13.91" rx="20.22" ry="13.91" transform="translate(482.56 1145.756) rotate(-78.62)" fill="#0b4e8c" stroke="#000" stroke-miterlimit="10" stroke-width="3"/>
                <ellipse id="Ellipse_9" data-name="Ellipse 9" cx="20.22" cy="13.91" rx="20.22" ry="13.91" transform="translate(509.833 1151.236) rotate(-78.62)" fill="#0b4e8c" stroke="#000" stroke-miterlimit="10" stroke-width="3"/>
                <ellipse id="Ellipse_10" data-name="Ellipse 10" cx="20.22" cy="13.91" rx="20.22" ry="13.91" transform="translate(537.094 1156.733) rotate(-78.62)" fill="#0b4e8c" stroke="#000" stroke-miterlimit="10" stroke-width="3"/>
                <ellipse id="Ellipse_11" data-name="Ellipse 11" cx="20.22" cy="13.91" rx="20.22" ry="13.91" transform="translate(417.973 1114.313) rotate(-78.62)" fill="#0b4e8c" stroke="#000" stroke-miterlimit="10" stroke-width="3"/>
                <ellipse id="Ellipse_12" data-name="Ellipse 12" cx="20.22" cy="13.91" rx="20.22" ry="13.91" transform="translate(445.234 1119.802) rotate(-78.62)" fill="#0b4e8c" stroke="#000" stroke-miterlimit="10" stroke-width="3"/>
                <ellipse id="Ellipse_13" data-name="Ellipse 13" cx="20.22" cy="13.91" rx="20.22" ry="13.91" transform="translate(472.497 1125.28) rotate(-78.62)" fill="#0b4e8c" stroke="#000" stroke-miterlimit="10" stroke-width="3"/>
                <ellipse id="Ellipse_14" data-name="Ellipse 14" cx="20.22" cy="13.91" rx="20.22" ry="13.91" transform="translate(499.758 1130.779) rotate(-78.62)" fill="#0b4e8c" stroke="#000" stroke-miterlimit="10" stroke-width="3"/>
                <ellipse id="Ellipse_15" data-name="Ellipse 15" cx="20.22" cy="13.91" rx="20.22" ry="13.91" transform="translate(527.031 1136.258) rotate(-78.62)" fill="#0b4e8c" stroke="#000" stroke-miterlimit="10" stroke-width="3"/>
                <ellipse id="Ellipse_16" data-name="Ellipse 16" cx="20.22" cy="13.91" rx="20.22" ry="13.91" transform="translate(554.292 1141.745) rotate(-78.62)" fill="#0b4e8c" stroke="#000" stroke-miterlimit="10" stroke-width="3"/>
                <ellipse id="Ellipse_17" data-name="Ellipse 17" cx="20.22" cy="13.91" rx="20.22" ry="13.91" transform="translate(435.586 1097.239) rotate(-78.62)" fill="#0b4e8c" stroke="#000" stroke-miterlimit="10" stroke-width="3"/>
                <ellipse id="Ellipse_18" data-name="Ellipse 18" cx="20.22" cy="13.91" rx="20.22" ry="13.91" transform="translate(462.857 1102.728) rotate(-78.62)" fill="#0b4e8c" stroke="#000" stroke-miterlimit="10" stroke-width="3"/>
                <ellipse id="Ellipse_19" data-name="Ellipse 19" cx="20.22" cy="13.91" rx="20.22" ry="13.91" transform="translate(490.12 1108.208) rotate(-78.62)" fill="#0b4e8c" stroke="#000" stroke-miterlimit="10" stroke-width="3"/>
                <ellipse id="Ellipse_20" data-name="Ellipse 20" cx="20.22" cy="13.91" rx="20.22" ry="13.91" transform="translate(517.381 1113.705) rotate(-78.62)" fill="#0b4e8c" stroke="#000" stroke-miterlimit="10" stroke-width="3"/>
                <ellipse id="Ellipse_21" data-name="Ellipse 21" cx="20.22" cy="13.91" rx="20.22" ry="13.91" transform="translate(544.644 1119.184) rotate(-78.62)" fill="#0b4e8c" stroke="#000" stroke-miterlimit="10" stroke-width="3"/>
                <ellipse id="Ellipse_22" data-name="Ellipse 22" cx="20.22" cy="13.91" rx="20.22" ry="13.91" transform="translate(425.521 1076.774) rotate(-78.62)" fill="#0b4e8c" stroke="#000" stroke-miterlimit="10" stroke-width="3"/>
                <ellipse id="Ellipse_23" data-name="Ellipse 23" cx="20.22" cy="13.91" rx="20.22" ry="13.91" transform="translate(452.784 1082.251) rotate(-78.62)" fill="#0b4e8c" stroke="#000" stroke-miterlimit="10" stroke-width="3"/>
                <ellipse id="Ellipse_24" data-name="Ellipse 24" cx="20.22" cy="13.91" rx="20.22" ry="13.91" transform="translate(480.055 1087.751) rotate(-78.62)" fill="#0b4e8c" stroke="#000" stroke-miterlimit="10" stroke-width="3"/>
                <ellipse id="Ellipse_25" data-name="Ellipse 25" cx="20.22" cy="13.91" rx="20.22" ry="13.91" transform="translate(507.318 1093.23) rotate(-78.62)" fill="#0b4e8c" stroke="#000" stroke-miterlimit="10" stroke-width="3"/>
                <ellipse id="Ellipse_26" data-name="Ellipse 26" cx="20.22" cy="13.91" rx="20.22" ry="13.91" transform="translate(534.589 1098.719) rotate(-78.62)" fill="#0b4e8c" stroke="#000" stroke-miterlimit="10" stroke-width="3"/>
                <ellipse id="Ellipse_27" data-name="Ellipse 27" cx="20.22" cy="13.91" rx="20.22" ry="13.91" transform="translate(561.842 1104.207) rotate(-78.62)" fill="#0b4e8c" stroke="#000" stroke-miterlimit="10" stroke-width="3"/>
                <ellipse id="Ellipse_28" data-name="Ellipse 28" cx="20.22" cy="13.91" rx="20.22" ry="13.91" transform="translate(442.69 1061.947) rotate(-78.62)" fill="#0b4e8c" stroke="#000" stroke-miterlimit="10" stroke-width="3"/>
                <ellipse id="Ellipse_29" data-name="Ellipse 29" cx="20.22" cy="13.91" rx="20.22" ry="13.91" transform="translate(469.953 1067.435) rotate(-78.62)" fill="#0b4e8c" stroke="#000" stroke-miterlimit="10" stroke-width="3"/>
                <ellipse id="Ellipse_30" data-name="Ellipse 30" cx="20.22" cy="13.91" rx="20.22" ry="13.91" transform="translate(497.225 1072.924) rotate(-78.62)" fill="#0b4e8c" stroke="#000" stroke-miterlimit="10" stroke-width="3"/>
                <ellipse id="Ellipse_31" data-name="Ellipse 31" cx="20.22" cy="13.91" rx="20.22" ry="13.91" transform="translate(524.486 1078.413) rotate(-78.62)" fill="#0b4e8c" stroke="#000" stroke-miterlimit="10" stroke-width="3"/>
                <ellipse id="Ellipse_32" data-name="Ellipse 32" cx="20.22" cy="13.91" rx="20.22" ry="13.91" transform="translate(551.758 1083.902) rotate(-78.62)" fill="#0b4e8c" stroke="#000" stroke-miterlimit="10" stroke-width="3"/>
                <ellipse id="Ellipse_33" data-name="Ellipse 33" cx="20.22" cy="13.91" rx="20.22" ry="13.91" transform="translate(432.628 1041.48) rotate(-78.62)" fill="#0b4e8c" stroke="#000" stroke-miterlimit="10" stroke-width="3"/>
                <ellipse id="Ellipse_34" data-name="Ellipse 34" cx="20.22" cy="13.91" rx="20.22" ry="13.91" transform="translate(459.889 1046.97) rotate(-78.62)" fill="#0b4e8c" stroke="#000" stroke-miterlimit="10" stroke-width="3"/>
                <ellipse id="Ellipse_35" data-name="Ellipse 35" cx="20.22" cy="13.91" rx="20.22" ry="13.91" transform="translate(487.16 1052.459) rotate(-78.62)" fill="#0b4e8c" stroke="#000" stroke-miterlimit="10" stroke-width="3"/>
                <ellipse id="Ellipse_36" data-name="Ellipse 36" cx="20.22" cy="13.91" rx="20.22" ry="13.91" transform="translate(514.423 1057.946) rotate(-78.62)" fill="#0b4e8c" stroke="#000" stroke-miterlimit="10" stroke-width="3"/>
                <ellipse id="Ellipse_37" data-name="Ellipse 37" cx="20.22" cy="13.91" rx="20.22" ry="13.91" transform="translate(541.684 1063.435) rotate(-78.62)" fill="#0b4e8c" stroke="#000" stroke-miterlimit="10" stroke-width="3"/>
                <ellipse id="Ellipse_38" data-name="Ellipse 38" cx="20.22" cy="13.91" rx="20.22" ry="13.91" transform="translate(568.957 1068.915) rotate(-78.62)" fill="#0b4e8c" stroke="#000" stroke-miterlimit="10" stroke-width="3"/>
              </g>
              <path id="Path_31" data-name="Path 31" d="M548.42,1037.24a29.278,29.278,0,0,0-1.64,4.39.235.235,0,0,1-.08-.02c-.03-.01-.05,0-.08-.01,1.28-10.11-2.95-19.04-9.99-20.45s-14.4,5.18-17.12,15a.235.235,0,0,1-.08-.02c-.03-.01-.05,0-.08-.01,1.28-10.11-2.95-19.04-9.99-20.45s-14.4,5.18-17.12,15a.235.235,0,0,1-.08-.02c-.03-.01-.05,0-.08-.01,1.28-10.11-2.95-19.04-9.99-20.45s-14.4,5.18-17.12,15a.235.235,0,0,1-.08-.02c-.03-.01-.05,0-.08-.01,1.28-10.11-2.95-19.04-9.99-20.45s-14.4,5.18-17.12,15a.235.235,0,0,1-.08-.02c-.03-.01-.05,0-.08-.01a25.159,25.159,0,0,0-1.21-11.92l-10.65,24.7,16.93,53.37,45.55-35.34,1.76,93.3a11.065,11.065,0,0,0,6.86,4.83c7.04,1.42,14.4-5.18,17.12-15a.235.235,0,0,1,.08.02c.03.01.05,0,.08.01-1.28,10.11,2.95,19.04,9.99,20.45,6.12,1.23,12.48-3.6,15.82-11.32l8.52-105.52Z" opacity="0.7" style="mix-blend-mode: soft-light;isolation: isolate"/>
              <g id="Group_9" data-name="Group 9">
                <path id="Path_32" data-name="Path 32" d="M610.02,989.3,483.5,967.1,358.61,938.71c-35.5,56.18-85.76,138.19-85.76,138.19,82.15,63.18,164.67,79.79,164.67,79.79l71.37-143.83,10.54,160.32s56.02-3.38,116.23-23.26c0,0-14.63-95.07-25.63-160.61Z" fill="#387fc2" stroke="#000" stroke-linejoin="round" stroke-width="6"/>
                <path id="Path_33" data-name="Path 33" d="M508.88,1012.85l10.54,160.32s5.39-1.9,21.35-2.18l-2.24-131.03s48.06-2.76,78.33-9.08c-2.33-14.37-4.66-28.56-6.84-41.58L483.5,967.1,358.61,938.71c-35.5,56.18-85.76,138.19-85.76,138.19,24.91,21.67,92.1,52.87,119.55,66.03,14.91-28.47,46.04-92.64,58.98-120.5,9.44,5.03,30.84,15.04,42.6,20.48l14.91-30.05Z" opacity="0.7" style="mix-blend-mode: soft-light;isolation: isolate"/>
                <path id="Path_34" data-name="Path 34" d="M288.24,1051.84c59.54,43.67,164.83,73.48,164.83,73.48" fill="none" stroke="#000" stroke-miterlimit="10" stroke-width="3"/>
                <path id="Path_35" data-name="Path 35" d="M308.79,1018.55c37.57,29.26,149.14,62.83,162.59,65.58" fill="none" stroke="#000" stroke-miterlimit="10" stroke-width="3"/>
                <path id="Path_36" data-name="Path 36" d="M330.2,984.04c33.91,28.21,160.26,63.81,160.26,63.81" fill="none" stroke="#000" stroke-miterlimit="10" stroke-width="3"/>
                <path id="Path_37" data-name="Path 37" d="M631.15,1120.85c-71.8,17.24-113.33,17.5-113.33,17.5" fill="none" stroke="#000" stroke-miterlimit="10" stroke-width="3"/>
                <path id="Path_38" data-name="Path 38" d="M625.08,1082.2c-45.96,12.45-95.35,13.62-108.81,10.96" fill="none" stroke="#000" stroke-miterlimit="10" stroke-width="3"/>
                <path id="Path_39" data-name="Path 39" d="M618.68,1042.1c-42.18,12.89-105.99,10.23-105.99,10.23" fill="none" stroke="#000" stroke-miterlimit="10" stroke-width="3"/>
                <path id="Path_40" data-name="Path 40" d="M618.13,1138.38l-13.49-99.11-17.91.19,5.36,100.81s19.98-.45,26.04-1.9Z" fill="#fff" style="mix-blend-mode: soft-light;isolation: isolate"/>
              </g>
              <path id="Path_41" data-name="Path 41" d="M676.67,689.08c-24.16-26-63.76-48.15-125.79-60.63-85.79-17.27-136.33,6.52-174.49,19.3,39.17,67.62-32.54,106.78-32.54,106.78L358.6,938.71s27.05,32.2,120.35,50.98,129.22-.75,129.22-.75,135.52-227.73,68.5-299.85Z" fill="#387fc2" stroke="#000" stroke-linejoin="round" stroke-width="6"/>
              <path id="Path_42" data-name="Path 42" d="M658.08,680.61c2.2-.48,35.73,46.67,35.73,46.67s13.81-11.68,16.48-22.81c-16.01-23.54-41.23-55.29-41.23-55.29l-10.99,31.44Z" fill="#387fc2" stroke="#000" stroke-linejoin="round" stroke-width="6"/>
              <path id="Path_43" data-name="Path 43" d="M516.13,993.69c78.74-117.45,80.37-311.24,65.91-342.26" fill="none" stroke="#000" stroke-linejoin="round" stroke-width="3"/>
              <path id="Path_44" data-name="Path 44" d="M687.27,730.32s-12.75-18.26-20.42-25.1c20.73,45.88-35.09,206.72-105.42,250.23a764.39,764.39,0,0,0,76.3-47.73c38.7-66.09,52.55-142.59,49.54-177.4Z" fill="#fff" style="mix-blend-mode: soft-light;isolation: isolate"/>
              <path id="Path_45" data-name="Path 45" d="M376.4,647.75c39.17,67.62-32.54,106.78-32.54,106.78l14.75,184.18s17.56,20.89,73.14,38.83a19.525,19.525,0,0,0,.9-11.52c-10.2-44.84,37.41-262.92,37.41-262.92l92.3,80.42,101.97-96.14-6.51-11.08c-26.3-21.18-50.47-36.48-106.92-47.85-85.79-17.27-136.33,6.52-174.49,19.3Z" opacity="0.7" style="mix-blend-mode: soft-light;isolation: isolate"/>
              <path id="Path_46" data-name="Path 46" d="M626.7,976.49c-.91-6.21-5.36-13.02-5.36-13.02l-4.3,8.33c-43.89,2.37-78.63-1.17-132.82-12.05-54.18-10.94-87.59-21.1-127.14-40.27l-.75-9.34s-6.73,4.55-9.97,9.93-10.84,30.22-11.01,35.38,2.9,11.39,11.62,17.47,69.04,32.92,126.11,42.24c56.24,13.48,122.24,12.06,132.63,9.83s15.64-6.8,17.47-11.62,4.44-30.67,3.53-36.88Z" fill="#0b4e8c" stroke="#000" stroke-linejoin="round" stroke-width="6"/>
              <path id="Path_47" data-name="Path 47" d="M623.16,1013.37a9.934,9.934,0,0,0,.3-.95c-62.85,5.98-99.19-.62-99.19-.62s10.21-26.37,2.72-44.43c-13.1-1.95-27.13-4.48-42.78-7.62-13.68-2.76-4.99-1.24-16.45-4.06-7.74,5.67-18.49,23.05-16.57,38.2-7.69-3.39-28.78-29.1-21.7-46.94a414.8,414.8,0,0,1-72.43-27.46l-.75-9.34s-6.73,4.55-9.97,9.93-10.84,30.22-11.01,35.38,2.9,11.39,11.62,17.47,69.04,32.92,126.11,42.24c56.24,13.48,122.24,12.06,132.63,9.83s15.64-6.8,17.47-11.62Z" opacity="0.7" style="mix-blend-mode: soft-light;isolation: isolate"/>
              <circle id="Ellipse_39" data-name="Ellipse 39" cx="41.86" cy="41.86" r="41.86" transform="translate(465.98 953.64)" fill="#387fc2" stroke="#000" stroke-linejoin="round" stroke-width="6"/>
              <circle id="Ellipse_40" data-name="Ellipse 40" cx="23.82" cy="23.82" r="23.82" transform="translate(492.67 973.42)" fill="#93bce4" stroke="#000" stroke-linejoin="round" stroke-width="3"/>
              <path id="Path_48" data-name="Path 48" d="M545.96,1012.8c-3.9-1.35-1.68-2.09-7.28-5.06-45.64,15.69-35.07-31.63-23.02-34.96l5.44-16.98a40.821,40.821,0,0,0-5-1.34,41.863,41.863,0,1,0,29.86,58.34Z" opacity="0.7" style="mix-blend-mode: soft-light;isolation: isolate"/>
              <circle id="Ellipse_41" data-name="Ellipse 41" cx="5.75" cy="5.75" r="5.75" transform="translate(520.7 985.29)" fill="#fff" style="mix-blend-mode: soft-light;isolation: isolate"/>
              <path id="Path_49" data-name="Path 49" d="M533.94,971.07s1,5.3-1.55,3.49-1.04,4.11-2.79,2.57,5.55,9.48,5.55,9.48a14.883,14.883,0,0,0-.39-4.12c-.48-1.18,3.23,4,3.44,1.34s2.37-1.58,2.37-1.58l-6.63-11.19Z" fill="#fff" style="mix-blend-mode: soft-light;isolation: isolate"/>
            </g>
            <g id="Group_18" data-name="Group 18">
              <path id="Path_50" data-name="Path 50" d="M634.36,626.05,480.41,595.07l-30.25,25.07c40.91,54.63,131.46,139.43,131.46,139.43s46.36-35.21,71.56-92.22Z" fill="#93bce4" stroke="#000" stroke-linejoin="round" stroke-width="6"/>
              <path id="Path_51" data-name="Path 51" d="M638.27,658.49l5.66,12.52-12.59,21.91s.76-20.19-4.42-24.78c6.26-3.41,11.35-9.66,11.35-9.66Z" fill="#fff" style="mix-blend-mode: soft-light;isolation: isolate"/>
              <path id="Path_52" data-name="Path 52" d="M633.59,593.43,493.72,565.28l-31.9,36.03c56.19,60.34,126.99,67.3,126.99,67.3s27.72,4.17,59.87-27.69l-15.09-47.48Z" fill="#93bce4" stroke="#000" stroke-linejoin="round" stroke-width="6"/>
              <path id="Path_53" data-name="Path 53" d="M631.42,635.28c-68.37-29-121.53-52.86-143.9-63l-25.7,29.02c1.62,1.74,3.26,3.44,4.9,5.09l-16.57,13.74c16.93,22.61,42.35,50.38,66.35,75.17l11.14-33.32s33.69,5.51,41.37,3.03c-28.37-9.67-36.02-12.94-36.02-12.94l5.69-16.98s71.11,18.43,92.74.19Z" opacity="0.7" style="mix-blend-mode: soft-light;isolation: isolate"/>
              <path id="Path_54" data-name="Path 54" d="M638.42,644.21c-4.41,3.47-16.6,9.23-16.6,9.23s6.16-9.02.94-14.65c9.23-3.59,14.61-6.13,14.61-6.13l1.05,11.55Z" fill="#fff" style="mix-blend-mode: soft-light;isolation: isolate"/>
              <path id="Path_55" data-name="Path 55" d="M581.62,759.57c4.65-44.85,4.08-91.28,4.08-91.28" fill="none" stroke="#000" stroke-linejoin="round" stroke-width="3"/>
              <path id="Path_56" data-name="Path 56" d="M592.74,668.79c1.34-25.16-3.34-36.55-3.34-36.55" fill="none" stroke="#000" stroke-linejoin="round" stroke-width="3"/>
              <g id="Group_17" data-name="Group 17">
                <path id="Path_57" data-name="Path 57" d="M615.84,376.55l-30.02-3.05c-26.62-22.66-30.15-65.62,12.13-84.3,49.31-21.78,134.31,7.94,125.75,96.86s48.8,95.18,48.8,95.18-6.75-15.08,7.92-25.42c34.03-23.99,65.18,32,30.82,69.34-27.83,30.25-88.94,46.56-154.6-27.5s-40.81-121.12-40.81-121.12Z" stroke="#000" stroke-miterlimit="10" stroke-width="6" fill="url(#linear-gradient)"/>
                <path id="Path_58" data-name="Path 58" d="M613.42,374.78c8.71-11.32,24.81-13.06,37.47-8.58a37.878,37.878,0,0,1,24.73,28.9c.83,4.2,1.6,10.64,2.24,14.94,4.72,36.22,15.24,74,48.16,94.37a103.987,103.987,0,0,0,36.63,13.48,107.369,107.369,0,0,1-28.77-8.34,86.456,86.456,0,0,1-34.68-28.37c-16.52-22.61-21.99-50.88-26.28-77.96-.77-4.69-1.58-9.67-3.5-14.02-6.31-15.25-25.05-23.63-40.6-18.38a21.364,21.364,0,0,0-10.57,7.51l-4.84-3.55h0Z"/>
                <path id="Path_59" data-name="Path 59" d="M593.27,376.22a51.245,51.245,0,0,1-8.52-26.49c-.71-23,16.58-45.79,39.58-49.19a35.207,35.207,0,0,1,13.34.65,34.985,34.985,0,0,0-13.22.09c-21.53,4.33-37.1,26.72-35.21,48.22a45.9,45.9,0,0,0,8.96,23.3l-4.93,3.42h0Z"/>
                <path id="Path_60" data-name="Path 60" d="M599.91,374.45c.9-19.93,8.99-42.39,30.16-48.1a39.335,39.335,0,0,1,19.57-.34,38.536,38.536,0,0,0-19.11,1.77c-19.39,6.84-25.18,28.12-24.61,46.79l-6-.12h0Z"/>
                <path id="Path_61" data-name="Path 61" d="M625.18,365.94c11.25-4.34,23.59-2.8,29.61,8.73,4.98,9.66,4.81,20.42,4.16,30.84-.96,16.63.17,45.81,14.94,56.28-15.46-9.85-18.09-39.5-17.94-56.38.79-18.74-3.91-44.29-28.58-33.88l-2.19-5.59h0Z"/>
                <g id="Group_11" data-name="Group 11">
                  <path id="Path_62" data-name="Path 62" d="M599.23,632.3a187.025,187.025,0,0,1-30.17-2.51c-34.85-5.74-65.52-20.55-86.35-41.68-21.62-21.93-31.01-49.23-26.45-76.88,8.62-52.33,67.34-110.85,133.01-110.85a108.163,108.163,0,0,1,17.37,1.41c32.99,5.44,62.82,26.33,83.98,58.82,19.32,29.67,28.04,64.47,23.33,93.08-3.93,23.88-17.36,43.95-38.82,58.04-20.48,13.45-46.73,20.57-75.9,20.57Z" fill="#387fc2"/>
                  <path id="Path_63" data-name="Path 63" d="M589.28,403.38a103.761,103.761,0,0,1,16.88,1.37C675.68,416.21,720.24,497.14,711,553.21c-7.9,47.93-54.86,76.09-111.76,76.09a182.936,182.936,0,0,1-29.68-2.47c-69.52-11.46-119.57-59.05-110.33-115.11,8.49-51.51,66.73-108.33,130.05-108.34m.01-6h-.01c-67.13,0-127.16,59.85-135.97,113.36-4.72,28.62,4.97,56.84,27.28,79.47,21.28,21.58,52.53,36.69,88,42.54a189.566,189.566,0,0,0,30.65,2.55c29.76,0,56.58-7.28,77.55-21.06,22.18-14.57,36.06-35.34,40.13-60.06,4.83-29.33-4.05-64.92-23.77-95.21a147.107,147.107,0,0,0-36.44-38.93,115.6,115.6,0,0,0-49.57-21.22,110.572,110.572,0,0,0-17.84-1.45h0Z"/>
                </g>
                <path id="Path_64" data-name="Path 64" d="M539.99,414.58c-41.85,19.09-74.56,59.53-80.76,97.14-9.24,56.07,40.81,103.66,110.33,115.11,33.59,5.54,65.58,1.62,90.71-10.22-62.43-14.02-155.42-108.47-133.88-131.15,24.68-25.97,15.8-44.12-.02-44.88s-6.68-14.64,13.62-26.01Z" opacity="0.7" style="mix-blend-mode: soft-light;isolation: isolate"/>
                <path id="Path_65" data-name="Path 65" d="M690.86,484.38c-5.75-24.66-31.55-57.61-68.99-71.94,24.18,21.29,36.36,50.08,38.14,68.59C663.12,490.69,696.07,506.75,690.86,484.38Z" fill="#fff" style="mix-blend-mode: soft-light;isolation: isolate"/>
                <path id="Path_66" data-name="Path 66" d="M629.9,636.77c-78.11-18.09-145.01-99.63-145.52-100.32l8.1-21.72c2.7-7.24,5.18-13.89,7.77-20.84,55.48,20.6,123.35-3.29,161.37-23,29,18.15,58.94,73.59,68.15,99.97-21.49,38.23-74.62,70.08-99.87,65.92Z" fill="#93bce4" stroke="#000" stroke-miterlimit="10" stroke-width="6"/>
                <path id="Path_67" data-name="Path 67" d="M729.77,570.86c-.26-.74-.53-1.5-.82-2.29-39.8,2.83-164.11-31.66-203.86-43.02a60.83,60.83,0,0,0,.07-25.34,123.556,123.556,0,0,1-24.9-6.31q-3.885,10.425-7.77,20.84l-8.1,21.72c.51.7,67.4,82.23,145.52,100.32,25.25,4.16,78.38-27.69,99.87-65.92Z" opacity="0.7" style="mix-blend-mode: soft-light;isolation: isolate"/>
                <path id="Path_68" data-name="Path 68" d="M661.62,470.89c26.98,30.43,47.06,72.93,56.27,99.3-21.49,38.23-61.08,60.67-87.99,66.58" fill="none" stroke="#000" stroke-miterlimit="10" stroke-width="3"/>
                <path id="Path_69" data-name="Path 69" d="M621.4,405.75l-46.9-4.76,11.32-27.49,30.02,3.05Z" fill="#93bce4" stroke="#000" stroke-miterlimit="10" stroke-width="6"/>
                <ellipse id="Ellipse_42" data-name="Ellipse 42" cx="45.59" cy="33.79" rx="45.59" ry="33.79" transform="translate(435.81 552.075) rotate(-80.64)" fill="#387fc2" stroke="#000" stroke-miterlimit="10" stroke-width="6"/>
                <path id="Path_70" data-name="Path 70" d="M483.99,513.8c-2.28,13.83-12.85,23.6-23.61,21.82-17.67-2.91-24.97-15.63-22.69-29.45s12.07-23.73,30.94-20.61c10.76,1.77,17.64,14.42,15.36,28.25Z" fill="#93bce4" stroke="#000" stroke-miterlimit="10" stroke-width="6"/>
                <path id="Path_71" data-name="Path 71" d="M499.67,542.79c-.11-.02-17.35-2.69-22.39-14.22-9.48,4.03-26.9-9.47-22.05-23.13s19.58-16.39,19.58-16.39a40.518,40.518,0,0,1,23.72-13.84,26.979,26.979,0,0,0-14.56-7.63c-13.07-2.15-26.05,6.13-33.95,20-6.98,3.54-10.98,10.36-12.34,18.58-1.3,7.89.52,15.41,5.6,20.96,2.9,15.96,12.62,28.25,25.85,30.43,11.33,1.87,22.59-4.11,30.53-14.77Z" opacity="0.7" style="mix-blend-mode: soft-light;isolation: isolate"/>
                <g id="Group_15" data-name="Group 15">
                  <g id="Group_12" data-name="Group 12">
                    <path id="Path_72" data-name="Path 72" d="M552.94,527.96l-.03-1.05c-.16-5.3-.44-10.23-.85-14.82q-6.465-.18-12.95-.89c.42,4.25.73,8.85.92,13.83,4.06.93,8.38,1.91,12.91,2.93Z"/>
                    <path id="Path_73" data-name="Path 73" d="M534.83,535.01a108.009,108.009,0,0,1-14.42,18.91q4.215,4.215,9.2,8.91a123.6,123.6,0,0,0,18.02-24.25q-6.75-1.86-12.79-3.56Z"/>
                  </g>
                  <g id="Group_13" data-name="Group 13">
                    <path id="Path_74" data-name="Path 74" d="M573.47,545.53c-10.94,15.54-25.1,26.32-35.47,31.48q5.895,4.89,11.79,9.39a117.348,117.348,0,0,0,37.95-37.17q-7.32-1.875-14.26-3.69Z"/>
                    <path id="Path_75" data-name="Path 75" d="M592.64,536.68a223.3,223.3,0,0,0-8.27-29.57c-4.61.84-9.3,1.56-14.05,2.13a208.872,208.872,0,0,1,7.37,24.21Q584.965,535.04,592.64,536.68Z"/>
                  </g>
                  <g id="Group_14" data-name="Group 14">
                    <path id="Path_76" data-name="Path 76" d="M641.11,546.7a282.842,282.842,0,0,0-20.44-49.03c-4.7,1.56-9.6,3.07-14.68,4.46a274.6,274.6,0,0,1,18.22,41.15q8.355,1.71,16.9,3.41Z"/>
                    <path id="Path_77" data-name="Path 77" d="M622.04,557.67c-14.88,21.08-36.53,35.66-53.89,41.74q5.625,3.675,11.19,6.95,2.325,1.365,4.65,2.65a132.994,132.994,0,0,0,53.67-47.72c-5.26-1.19-10.47-2.41-15.63-3.62Z"/>
                  </g>
                </g>
                <g id="Group_16" data-name="Group 16">
                  <path id="Path_78" data-name="Path 78" d="M688.91,555.77a354.34,354.34,0,0,0-36.29-70.72c-4.51,2.07-9.58,4.27-15.11,6.47a340.318,340.318,0,0,1,32.73,60.82Q679.585,554.1,688.91,555.77Z"/>
                  <path id="Path_79" data-name="Path 79" d="M671.56,568.6c-17.19,25.45-43.49,43.03-65.72,51.11a167.589,167.589,0,0,0,22.54,7.66c22.25-11.53,44.97-30.26,60.15-55.43q-8.475-1.605-16.97-3.33Z"/>
                </g>
                <path id="Path_80" data-name="Path 80" d="M775.26,480.07c2.99,8.28,10.77,15.26,19.97,14.33,10.16-1.18,17.09-8.08,14.09-18.72-1.6-5.86-6.72-12.45-13.5-11.29,3.26-.89,6.78.38,9.28,2.55,7.97,6.72,9.96,20.83.3,27.08-8.99,6.82-21.8,5.38-29.53-2.74a32.664,32.664,0,0,1-6.14-8.85l5.52-2.35h0Z"/>
              </g>
            </g>
            <path id="Path_81" data-name="Path 81" d="M416.15,729.5c-10.12,32.54-36.1,50.42-58.03,39.92s-31.49-45.39-21.36-77.93,36.1-50.42,58.03-39.92,31.49,45.39,21.36,77.93Z" stroke="#000" stroke-linejoin="round" stroke-width="6"/>
            <path id="Path_82" data-name="Path 82" d="M405.27,696.47l62.99-22.55s-10.59-39.75-46.81-57.41c-14.64,1.59-77.28,25.2-77.28,25.2l-1.05,5.23C383.29,656.37,400.81,680.78,405.27,696.47Z" fill="#387fc2" stroke="#000" stroke-linejoin="round" stroke-width="6"/>
            <path id="Path_83" data-name="Path 83" d="M405.27,696.47l62.99-22.55s-10.59-39.75-46.81-57.41c-14.64,1.59-77.28,25.2-77.28,25.2l-1.05,5.23C383.29,656.37,400.81,680.78,405.27,696.47Z" fill="#387fc2" stroke="#000" stroke-linejoin="round" stroke-width="6"/>
          </g>
        </g>
        <path id="Path_85" data-name="Path 85" d="M751.29,845.12,540,982.5,352.34,860.49" fill="none" stroke="#000" stroke-linecap="round" stroke-miterlimit="10" stroke-width="6"/>
        <g id="Group_25" data-name="Group 25">
          <g id="Group_21" data-name="Group 21">
            <path id="Path_86" data-name="Path 86" d="M430.98,702.47c-17.15,43.92-101.03,57.16-122.69,0s-19.06-104.39,6.34-129.85,141.61,14.9,129.77,83.96-13.43,45.89-13.43,45.89Z" stroke="#000" stroke-linejoin="round" stroke-width="6"/>
            <path id="Path_87" data-name="Path 87" d="M467.66,587.34c-35.43-56.5-116.43-70.23-149.9-18.35,46.52-7.03,109.13,23.09,117.15,103.09,12.26,17.44,73.2-28.24,32.75-84.74Z" fill="#387fc2" stroke="#000" stroke-linejoin="round" stroke-width="6"/>
            <path id="Path_88" data-name="Path 88" d="M423.07,584.35c-15.46-18.14-13.48-35.99,3.15-35.57-38.12-20.29-84.98-16.18-108.46,20.21,46.52-7.03,109.13,23.09,117.15,103.09a9.269,9.269,0,0,0,7.79,3.76C453.21,647.5,439.74,603.92,423.07,584.35Z" opacity="0.7" style="mix-blend-mode: soft-light;isolation: isolate"/>
            <path id="Path_89" data-name="Path 89" d="M467.66,587.34c28.36,40.26-7.99,81.73-28.66,85.41-1.26-19.08-1.42-57.57-37.23-92.05s-78.46-32.28-92.06-17.31-8.46,23.12-8.46,23.12,12.16-20.2,60.22-5.47,68.08,76.98,65.74,107.35c-2.8,15.25,51.53,5.4,64.94-42.19s-24.49-58.87-24.49-58.87Z" fill="#0b4e8c" stroke="#000" stroke-linejoin="round" stroke-width="6"/>
            <path id="Path_90" data-name="Path 90" d="M454.72,664.74a69.447,69.447,0,0,1-21.39,14.49s1.12-12.27-8.03-42.4-33.69-51.31-33.69-51.31H376.83s.21,1,.61,2.69c36.54,21.95,51.84,73.44,49.78,100.19-1.81,9.88,20.35,9.22,39.84-5.41-1.06-6.83-2.59-16.57,1.99-22.72,6.47-8.7,15.38-22.98,13.23-46.64-1.72-18.93-10.03-24.39-13.28-25.81-.83-.32-1.32-.47-1.32-.47,21.86,31.04,5.27,62.79-12.95,77.4Z" opacity="0.7" style="mix-blend-mode: soft-light;isolation: isolate"/>
            <ellipse id="Ellipse_43" data-name="Ellipse 43" cx="23.71" cy="17.57" rx="23.71" ry="17.57" transform="translate(417.826 708.95) rotate(-80.64)" fill="#387fc2" stroke="#000" stroke-miterlimit="10" stroke-width="6"/>
            <path id="Path_91" data-name="Path 91" d="M442.7,692.9c-8.52-7.52-9.48-18.06-7.81-26.78-6.4,2.85-11.7,10.16-13.22,19.41-2.13,12.92,3.91,24.68,13.49,26.25,7.23,1.19,14.4-3.76,18.4-11.81-4.37-2.54-8.42-4.94-10.85-7.08Z" opacity="0.7" style="mix-blend-mode: soft-light;isolation: isolate"/>
            <path id="Path_92" data-name="Path 92" d="M435.14,687.75c1.19-7.19,6.68-12.27,12.28-11.35,9.19,1.51,12.99,8.13,11.8,15.32s-6.28,12.34-16.09,10.72C437.53,701.52,433.96,694.94,435.14,687.75Z" fill="#93bce4" stroke="#000" stroke-miterlimit="10" stroke-width="6"/>
            <path id="Path_93" data-name="Path 93" d="M449.75,577.7c16.74,20.75,19.86,37.71,17.4,48.2s-9.35,13.47-10.59-.63-6.82-47.57-6.82-47.57Z" fill="#fff" style="mix-blend-mode: soft-light;isolation: isolate"/>
            <path id="Path_94" data-name="Path 94" d="M373.37,740.21c30.99,4.69,71.87-77.85,24.3-117.83-29.98-25.19-51.77-36.21-65.85-37.99s-107,59.64-91.82,105.13,133.37,50.69,133.37,50.69Z" fill="#93bce4" stroke="#000" stroke-linejoin="round" stroke-width="6"/>
            <path id="Path_95" data-name="Path 95" d="M409.91,710.49h0l-37.6-29.83s30.92-36.28,6.2-64.15c-11.34-12.79-58.58-11.82-102.13,1.44-23.71,21-44.13,48.36-36.38,71.57,15.17,45.49,133.37,50.69,133.37,50.69,10.14,1.53,21.34-6.27,30.15-18.87l-38.25-24.87,6.38-6.76Z" opacity="0.7" style="mix-blend-mode: soft-light;isolation: isolate"/>
            <path id="Path_96" data-name="Path 96" d="M409.36,697.23h0c-.69,1.53-2.04,1.88-3.01.8h0a4.756,4.756,0,0,1-.51-4.73h0c.69-1.52,2.04-1.88,3.01-.8A4.756,4.756,0,0,1,409.36,697.23Zm-11.83-8.95h0c-.69,1.53-2.04,1.88-3.01.8h0a4.756,4.756,0,0,1-.51-4.73h0c.69-1.52,2.04-1.88,3.01-.8A4.756,4.756,0,0,1,397.53,688.28Zm-12.07-9.05h0c-.69,1.53-2.04,1.88-3.01.8h0a4.756,4.756,0,0,1-.51-4.73h0c.69-1.52,2.04-1.88,3.01-.8A4.756,4.756,0,0,1,385.46,679.23Z"/>
            <path id="Path_97" data-name="Path 97" d="M361.2,663.27l20.94,3.91,32.8,25.72" fill="none" stroke="#000" stroke-linejoin="round" stroke-width="3"/>
            <path id="Path_98" data-name="Path 98" d="M256.26,709.36c49.34,31.45,136.53-9.21,132.02-84.24" fill="none" stroke="#000" stroke-linejoin="round" stroke-width="5"/>
          </g>
          <path id="Path_99" data-name="Path 99" d="M232.57,651.13c.2,62.58,139.98,66.19,146.62-26S232.27,556.77,232.57,651.13Z"/>
          <path id="Path_100" data-name="Path 100" d="M210.1,481.08s-9.5,89.91-12.94,117.86c-7.91,112.87,239.62,84.56,205.78-38.83S351.11,381.8,351.11,381.8l-141,99.29Z" fill="#387fc2" stroke="#000" stroke-linejoin="round" stroke-width="6"/>
          <path id="Path_101" data-name="Path 101" d="M322.43,518.45s15.63-58.28,20.69-84.66c1.58-8.22-8.94-18.53-26.66-27.61L210.1,481.08s-9.5,89.91-12.94,117.86c-3.3,47.07,37.82,69.58,84.44,70.89l3.2-116.76,14.07-3.41,16.81,117.47a155.963,155.963,0,0,0,31.99-9.48Z" opacity="0.7" style="mix-blend-mode: soft-light;isolation: isolate"/>
          <path id="Path_102" data-name="Path 102" d="M178.76,480.37c32.01,60.64,129.84,83.93,181.99,1.37S327.6,353.73,255.15,365.65,162.69,449.94,178.76,480.37Z" fill="#387fc2" stroke="#000" stroke-linejoin="round" stroke-width="6"/>
          <path id="Path_103" data-name="Path 103" d="M178.76,480.37c32.01,60.64,129.84,83.93,181.99,1.37S327.6,353.73,255.15,365.65,162.69,449.94,178.76,480.37Z" opacity="0.7" style="mix-blend-mode: soft-light;isolation: isolate"/>
          <path id="Path_104" data-name="Path 104" d="M338.06,460.17c-12.89,21.96,8.91,55.5,33.5,46.19s73.75-48.05,81.57-68.91-20.49-61.46-44.7-56.43S343.56,450.81,338.06,460.17Z" fill="#387fc2" stroke="#000" stroke-linejoin="round" stroke-width="6"/>
          <path id="Path_105" data-name="Path 105" d="M454.38,427.74c-1.26-21.6-25.11-51.06-45.95-46.73-24.21,5.03-64.87,69.79-70.37,79.15-9.56,16.29-.03,38.93,15.56,45.75.83-21.42,28.29-61.14,50.13-74.83,27.79-17.4,33.9-18.97,33.9-18.97s11.43,0,16.72,15.62Z" opacity="0.7" style="mix-blend-mode: soft-light;isolation: isolate"/>
          <g id="Group_22" data-name="Group 22">
            <path id="Path_106" data-name="Path 106" d="M495.44,133.16l79.9-57.78c-38.97-23.86-87.41-13.53-116.29,13.35-46.9,43.64-33.93,105.4-33.42,122.59L127.75,509.68a44.773,44.773,0,0,0-.53,61.56h0a44.761,44.761,0,0,0,64.15,1.43L481.49,271.01c17,1.63,73.63,18.27,122.16-26.9,28.88-26.87,33.18-72.77,24.81-108.62l-71.3,66.61c-32.09-7.72-62.76-39.46-61.73-68.95ZM164.18,549.42a12.89,12.89,0,1,1,12.89-12.89A12.889,12.889,0,0,1,164.18,549.42Z" fill="#cfd1d2" stroke="#000" stroke-miterlimit="10" stroke-width="6"/>
            <path id="Path_107" data-name="Path 107" d="M423.37,209.35l10.89-11.86-.62,1.92c-.21-4.27-.16-8.37-.01-12.54.68-16.53,3.36-33.11,9.31-48.58,4.48-11.49,11.07-22.36,20.38-30.56-20.47,20.54-25.28,51.33-25.18,79.2.07,4.39.27,8.79.74,13.06l-.73.88L427.9,213.29l-4.53-3.94Z"/>
            <path id="Path_108" data-name="Path 108" d="M481.74,128.69c.28,36.9,30.21,70.05,63.18,83.32a55.116,55.116,0,0,0,14.99,3.55l-1.37.49c18.74-17.1,37.6-34.06,56.94-50.48-13.32,13.6-26.95,26.87-40.66,40.06-4.74,4.59-9.55,9.1-14.32,13.66a54.39,54.39,0,0,1-16.94-3.62c-34-13.13-65.19-48.97-61.82-86.97h0Z"/>
            <path id="Path_109" data-name="Path 109" d="M459.69,219.78c20.77,4.38,17.34,24.92,8.11,38.88-5.64,9.15-13.47,16.54-21.1,23.99-11.19,11.3-22.09,22.9-33.01,34.47-68.81,72.73-149.62,160.12-219.82,230.34a118.862,118.862,0,0,1-11.94,10.66,43.284,43.284,0,0,1-14.37,7.09c-10.35,2.99-22.6-.99-27.75-10.77,5.38,9.44,17.44,13.07,27.52,9.91a42.1,42.1,0,0,0,13.85-7.23c4.18-3.18,7.79-7.06,11.5-10.84,64.95-68.35,131.11-140.36,196.64-208.41,22.04-22.98,44.24-45.81,67.22-67.85,7.18-7.54,13.88-16.14,16.74-26.29,3.26-11.28-1.68-21.36-13.59-23.94h0Z"/>
            <path id="Path_110" data-name="Path 110" d="M550.02,81.21,523.07,97.84c-29.64-1.93-61.45,42.41-65.79,66.51-2.9-46.41,36.06-94.47,92.74-83.14Z" fill="#fff" style="mix-blend-mode: soft-light;isolation: isolate"/>
            <path id="Path_111" data-name="Path 111" d="M478.49,219.78c12.05,6.27,7.35,30.36,3.19,36.63,28.62,9.16,69.58,2.41,80.67-6.27C512.22,255.92,504.03,218.33,478.49,219.78Z" fill="#fff" style="mix-blend-mode: soft-light;isolation: isolate"/>
            <path id="Path_112" data-name="Path 112" d="M458.87,219.39c-17.81-5.44-48.06,32.97-48.06,32.97l-13.83-12.64L198.31,443.29l15.01,14.37s-91.4,73.74-73.52,97.29c6.35,11.13,24.7,18.4,45.65-.52a865.3,865.3,0,0,0,65.19-62.96l14.17,9.11L458.79,294.24l-13.35-12.33c2.16-2.18,3.96-3.97,5.39-5.32,30.76-29.27,28.32-53.1,8.03-57.21ZM167.13,552.37a12.886,12.886,0,1,1,12.74-13.03A12.881,12.881,0,0,1,167.13,552.37Z" opacity="0.7" style="mix-blend-mode: soft-light;isolation: isolate"/>
            <path id="Path_113" data-name="Path 113" d="M213.33,457.66s-91.4,73.74-73.52,97.29a21.864,21.864,0,0,0,7.95,7.95c-3.79-4.23-6.22-9.67-3.17-15.77,2.22-4.44,6.2-8.88,10.63-12.89a12.855,12.855,0,0,1,9.13-7.36,142.74,142.74,0,0,1,12.71-8.3l23.73,22.2h0L398.08,331.59,379.2,312.85s43.83-56.23,65.28-70.96c13.63-9.36,24.63-6.63,29.1-.08,2.24-11.86-3.5-20.13-14.69-22.4-17.81-5.44-48.06,32.97-48.06,32.97L210.98,455.42l2.37,2.27Z" opacity="0.7" style="mix-blend-mode: soft-light;isolation: isolate"/>
          </g>
          <path id="Path_114" data-name="Path 114" d="M379.19,412.74c37.12,0,47.12-42.84,31.41-57.11s-84.24-74.25-109.94-85.67-44.26,2.86-44.26,17.13-27.13-5.71-42.84,15.71,7.14,39.98-21.42,51.4-31.41,37.12-27.13,48.55-8.57,15.71-12.85,41.41,32.84,79.96,65.68,89.95,51.4-18.56,51.4-18.56c29.62,15.63,63.23-21.19,57.11-45.69,37.12,0,61.4-32.84,52.83-57.11Z" fill="#387fc2" stroke="#000" stroke-linejoin="round" stroke-width="6"/>
          <g id="Group_24" data-name="Group 24" opacity="0.7" style="mix-blend-mode: soft-light;isolation: isolate">
            <g id="Group_23" data-name="Group 23">
              <path id="Path_115" data-name="Path 115" d="M209.48,398.65s1.52-3.78,0-13.62-11.41-21.26-11.41-21.26,41.82-4.15,45.43-34.35c12.65-6.44,10.91-21.17,10.91-21.17s25.48-10.86,22.4-32.47c-.43-3.03-3.74-5.13-9.15-6.24-7.1,4.03-11.26,10.78-11.26,17.54,0,14.28-27.13-5.71-42.84,15.71s7.14,39.98-21.42,51.4-31.41,37.12-27.13,48.55-8.57,15.71-12.85,41.41S185,524.11,217.84,534.1c13.19,4.01,24.07,1.81,32.37-2.27-20.03-20.94-70.22-74.71-74.25-91.82,11.47-9.82,18.99-6.23,18.99-6.23l72.94,83.6c.9-1.15,1.35-1.85,1.35-1.85,13.16,2.99,26.87,4.07,36.74-3.65-23.47-23.86-96.51-113.24-96.51-113.24Z"/>
              <path id="Path_116" data-name="Path 116" d="M301.54,309.94s-5.92,11.35-4.61,18.5,2.01,8.53,14.99,19.39c10.77,9.01,50.32,47.19,67.4,65.32-.05-.14-.08-.28-.13-.42,11.36,0,20.17-4.02,26.49-10-26.36-41.27-104.14-92.79-104.14-92.79Z"/>
              <path id="Path_117" data-name="Path 117" d="M371.84,448c-26.06-21.66-109.78-103.24-109.78-103.24s-7.68,3.14-12.48,16.12-4.56,16.88,5.17,27.69c7.6,8.44,54.77,59.28,75.1,81.18a56.422,56.422,0,0,0,41.98-21.76Z"/>
            </g>
          </g>
          <path id="Path_118" data-name="Path 118" d="M379.19,412.74c-32.59-36.38-56.43-56.87-80.27-75.12-10.06-26.45,20.63-51.83,31.92-48.27" fill="none" stroke="#000" stroke-linejoin="round" stroke-width="6"/>
          <path id="Path_119" data-name="Path 119" d="M298.92,337.62c-23.84-17.13-66.35,27.94-47.92,46.93,10.64,10.96,75.36,85.3,75.36,85.3" fill="none" stroke="#000" stroke-linejoin="round" stroke-width="6"/>
          <path id="Path_120" data-name="Path 120" d="M269.25,515.54c-48.17-49.79-68.5-67.04-72.97-84.8s30.75-62.58,54.72-46.19" fill="none" stroke="#000" stroke-linejoin="round" stroke-width="6"/>
          <path id="Path_121" data-name="Path 121" d="M198.07,436.11c-14.46-10.83-42.37,18.76-39.96,36.56" fill="none" stroke="#000" stroke-linejoin="round" stroke-width="6"/>
          <path id="Path_122" data-name="Path 122" d="M200.96,339.86c-17.88-45.44,25.75-65.97,49.19-47.14C269.24,319.37,218.96,358.61,200.96,339.86Z" fill="#387fc2" stroke="#000" stroke-linejoin="round" stroke-width="6"/>
          <path id="Path_123" data-name="Path 123" d="M237.19,335.18c-17.14-1.46-29.62-24.9-30.67-39.99-9.26,9.07-13.54,24.38-5.56,44.67,8.46,8.81,24.06,4.81,36.24-4.68Z" opacity="0.7" style="mix-blend-mode: soft-light;isolation: isolate"/>
          <path id="Path_124" data-name="Path 124" d="M163.46,396.5c-23.97-38.53,12.46-64.62,37.05-51.34C226.15,371.48,179.66,410.31,163.46,396.5Z" fill="#387fc2" stroke="#000" stroke-linejoin="round" stroke-width="6"/>
          <path id="Path_125" data-name="Path 125" d="M207.46,368.17c-7.91,9.18-33.6-4.33-32.17-24.41-16.66,6.38-28.02,26.72-11.83,52.74C175.24,406.54,203.03,388.75,207.46,368.17Z" opacity="0.7" style="mix-blend-mode: soft-light;isolation: isolate"/>
          <path id="Path_126" data-name="Path 126" d="M147.52,443.8c-17.51-28.15,9.1-47.2,27.06-37.5C182.41,419.65,154.84,451.46,147.52,443.8Z" fill="#387fc2" stroke="#000" stroke-linejoin="round" stroke-width="6"/>
          <path id="Path_127" data-name="Path 127" d="M152.78,406.91c-10.19,5.93-15.96,19.71-5.27,36.9,5.53,5.78,22.62-10.96,27.26-25.25-3.61-3.78-14.68-8.89-22-11.64Z" opacity="0.7" style="mix-blend-mode: soft-light;isolation: isolate"/>
          <path id="Path_128" data-name="Path 128" d="M252.31,290.38c-3.64-39.61,35.16-45.73,49.2-25.67,1.22,18.54-45.47,37.81-49.2,25.67Z" fill="#387fc2" stroke="#000" stroke-linejoin="round" stroke-width="6"/>
          <path id="Path_129" data-name="Path 129" d="M263.7,258.71c-7.64,5.65-12.82,16.04-11.39,31.66,1.87,6.09,14.53,4.28,26.53-1.36-10.68-1.24-14.13-19.27-15.15-30.3Z" opacity="0.7" style="mix-blend-mode: soft-light;isolation: isolate"/>
          <path id="Path_130" data-name="Path 130" d="M168.87,491.82c-.56-28.92,35.32-37.91,43.95-34.65,2.17-36.48,36.11-59.2,51.67-57.77,2.65-29.86,32.63-53.75,51.16-48.51.16-30.52,23.91-47.79,36.37-45.11" fill="none" stroke="#000" stroke-linejoin="round" stroke-width="3"/>
          <path id="Path_131" data-name="Path 131" d="M410.6,355.62c2.05,20.86-23.28,47.3-43.64,43.76-1.99,28.75-20.83,53.74-52.88,56.39-4.73,28.97-32.58,49.89-56.65,47.63-8.18,11.14-34.57,28.91-59.37,20.03" fill="none" stroke="#000" stroke-linejoin="round" stroke-width="3"/>
          <path id="Path_132" data-name="Path 132" d="M183.54,510.23c16.05-21.01,31.84-27.36,49.03-32.13,20.16-37.05,55.47-52.05,55.47-52.05s14.16-34.72,50.02-55.55c17.48-31.76,41.13-42.28,41.13-42.28" fill="none" stroke="#000" stroke-linejoin="round" stroke-width="3"/>
          <path id="Path_133" data-name="Path 133" d="M379.19,502.93c5.77-18.56-9.43-43.51-15.61-46.3" fill="none" stroke="#000" stroke-linejoin="round" stroke-width="3"/>
          <path id="Path_134" data-name="Path 134" d="M421.1,472.67c.74-26.29-14.17-54.07-34.51-60.54" fill="none" stroke="#000" stroke-linejoin="round" stroke-width="3"/>
          <path id="Path_135" data-name="Path 135" d="M449.09,444.98c-3.04-24.67-16.1-45.77-35.27-53.47" fill="none" stroke="#000" stroke-linejoin="round" stroke-width="3"/>
          <path id="Path_136" data-name="Path 136" d="M200.79,567.3c4.27,88.05,200.17,73.36,196.09-29.18" fill="none" stroke="#000" stroke-linejoin="round" stroke-width="3"/>
          <path id="Path_137" data-name="Path 137" d="M206.55,529.08c6.45,56.48,173.33,43.29,180.03-21.13" fill="none" stroke="#000" stroke-linejoin="round" stroke-width="3"/>
          <path id="Path_138" data-name="Path 138" d="M406.12,381.79l-86.14-71.84s6.25-7.16,10.71-7.83c15.84,10.26,69.22,55.56,75,60.47s.43,19.2.43,19.2Z" fill="#fff" style="mix-blend-mode: soft-light;isolation: isolate"/>
          <path id="Path_139" data-name="Path 139" d="M372.03,418.24s-59.99-62.98-80.01-73.49c-9.31.43-10.65,1.99-10.65,1.99l89.04,83.23S374.1,426.81,372.03,418.24Z" fill="#fff" style="mix-blend-mode: soft-light;isolation: isolate"/>
          <path id="Path_140" data-name="Path 140" d="M314.73,472.67,239.09,392.8s-8.59,1.91-13.5,8.22c11.83.29,79.08,86.31,79.08,86.31s11.52-1.67,10.06-14.65Z" fill="#fff" style="mix-blend-mode: soft-light;isolation: isolate"/>
          <path id="Path_141" data-name="Path 141" d="M243.61,316.96c4.02-8.03,4.85-19.79-4.52-22.78s-17.77.69-22.11,3.54c14.24-2.18,26.63,19.25,26.63,19.25Z" fill="#fff" style="mix-blend-mode: soft-light;isolation: isolate"/>
          <path id="Path_142" data-name="Path 142" d="M293.65,266.58c-4.02-6.02-14.37-7.93-21.76-4.69,12.38,1.51,13.6,14.6,9.48,18.68,10.1-5.8,12.28-14,12.28-14Z" fill="#fff" style="mix-blend-mode: soft-light;isolation: isolate"/>
          <path id="Path_143" data-name="Path 143" d="M392.69,598.35l-28.52-82.81-12.15,8.11,13.26,104.92c24.53-4.17,27.42-30.22,27.42-30.22Z" fill="#fff" style="mix-blend-mode: soft-light;isolation: isolate"/>
          <path id="Path_144" data-name="Path 144" d="M445.24,421.27s-63.94,41.5-73.41,56.68-8.25,20.53-8.25,20.53,83.81-62.7,85.51-67.72-3.85-9.48-3.85-9.48Z" fill="#fff" style="mix-blend-mode: soft-light;isolation: isolate"/>
          <path id="Path_145" data-name="Path 145" d="M288.63,319.97c2.68-15.4,17.47-30.95,17.47-30.95l-4.55-3.27s-17.69,13.23-29.65,16.37c12.05-.89,16.74,17.85,16.74,17.85Z" fill="#fff" style="mix-blend-mode: soft-light;isolation: isolate"/>
          <path id="Path_146" data-name="Path 146" d="M254.37,514.1s-2.45,3.35-5.8,3.57c0,0-52.67-50.51-60.7-68.21,2.02-3.42,3.8-2.53,3.8-2.53C203.72,463.67,243.54,507.66,254.37,514.1Z" fill="#fff" style="mix-blend-mode: soft-light;isolation: isolate"/>
          <path id="Path_147" data-name="Path 147" d="M199.03,360.13c2.12-9.04-6.58-14.06-15.49-11.05C193.01,350.2,199.03,360.13,199.03,360.13Z" fill="#fff" style="mix-blend-mode: soft-light;isolation: isolate"/>
          <path id="Path_148" data-name="Path 148" d="M413.25,665.94l-19.64-16.4a50.069,50.069,0,0,0,0-10.82c8.82,7.25,18.75,17.52,18.75,17.52S413.14,661.92,413.25,665.94Z" fill="#fff" style="mix-blend-mode: soft-light;isolation: isolate"/>
          <path id="Path_149" data-name="Path 149" d="M483.43,634.82a48.171,48.171,0,0,0,1.03-17.85s4.24,1.34,5.13,8.87c1.45,9.87-4.35,20.36-4.35,20.36S487.6,637.05,483.43,634.82Z" fill="#fff" style="mix-blend-mode: soft-light;isolation: isolate"/>
          <ellipse id="Ellipse_44" data-name="Ellipse 44" cx="2.24" cy="3.35" rx="2.24" ry="3.35" transform="translate(447.619 685.314) rotate(-42.4)" fill="#fff" style="mix-blend-mode: soft-light;isolation: isolate"/>
          <path id="Path_150" data-name="Path 150" d="M442.42,690.49c-1.56-2.51-2.45-8.93,1.51-11.32a29.65,29.65,0,0,0-8.53,7.33c-.1.41-.19.83-.26,1.25-1.19,7.19,2.39,13.77,7.99,14.69,4.12.68,7.41.15,9.92-1.21a6.911,6.911,0,0,0,1.2-5.73c-1.79-5.52-10.26-2.51-11.83-5.02Z" opacity="0.7" style="mix-blend-mode: soft-light;isolation: isolate"/>
        </g>
      </g>
    </g>
  </g>
</svg>
